<svg width="24" height="24" viewBox="0 0 24 24" fill="none" xmlns="http://www.w3.org/2000/svg">
<path d="M17.7071 12.2928C17.3161 11.9018 16.6841 11.9018 16.2931 12.2928L14.6991 13.8868C13.9601 13.6668 12.5811 13.1668 11.7071 12.2928C10.8331 11.4188 10.3331 10.0398 10.1131 9.30076L11.7071 7.70676C12.0981 7.31576 12.0981 6.68376 11.7071 6.29276L7.70709 2.29276C7.31609 1.90176 6.68409 1.90176 6.29309 2.29276L3.58109 5.00476C3.20109 5.38476 2.98709 5.90676 2.99509 6.43976C3.01809 7.86376 3.39509 12.8098 7.29309 16.7078C11.1911 20.6058 16.1371 20.9818 17.5621 21.0058C17.5671 21.0058 17.5851 21.0058 17.5901 21.0058C18.1181 21.0058 18.6171 20.7978 18.9951 20.4198L21.7071 17.7078C22.0981 17.3168 22.0981 16.6848 21.7071 16.2938L17.7071 12.2928ZM17.5801 19.0048C16.3321 18.9838 12.0621 18.6488 8.70709 15.2928C5.34109 11.9268 5.01509 7.64176 4.99509 6.41876L7.00009 4.41376L9.58609 6.99976L8.29309 8.29276C8.05409 8.53076 7.95209 8.87476 8.02109 9.20476C8.04509 9.31976 8.63209 12.0468 10.2921 13.7068C11.9521 15.3668 14.6791 15.9538 14.7941 15.9778C15.1271 16.0488 15.4681 15.9458 15.7061 15.7068L17.0001 14.4138L19.5861 16.9998L17.5801 19.0048Z" fill="#F2F2F2"/>
</svg>
