<svg width="33" height="33" viewBox="0 0 33 33" fill="none" xmlns="http://www.w3.org/2000/svg">
<g clip-path="url(#clip0)">
<path d="M32.1736 13.875C30.868 13.4526 29.4728 13.2158 28.0264 13.2158C20.6024 13.2158 14.5864 19.2318 14.5864 26.6558C14.5864 28.6206 15.0152 30.483 15.7768 32.1662H32.1736V13.875V13.875Z" fill="#65AA00"/>
<path d="M2.09362 9.01074L2.08722 23.8843V27.0651H10.9512H17.876H26.74V23.8843V11.0139V9.01074H2.09362Z" fill="#E3E2E4"/>
<path d="M10.004 17.126C7.38002 17.126 5.25522 19.2508 5.25522 21.8748V23.8844H14.7528V21.8748C14.7528 19.2508 12.628 17.126 10.004 17.126Z" fill="#E9F4BC"/>
<path d="M7.06641 14.1886C7.06641 12.5694 8.37841 11.251 10.004 11.251C11.6232 11.251 12.9416 12.563 12.9416 14.1886C12.9416 15.8078 11.6296 17.1262 10.004 17.1262C8.38481 17.1262 7.06641 15.8078 7.06641 14.1886Z" fill="white"/>
<path d="M2.09363 23.8843V27.0587H26.7336H26.74V23.8843H2.09363Z" fill="white"/>
<path d="M17.876 27.0586H10.9512V30.0218H17.876V27.0586Z" fill="white"/>
<path d="M31.5272 2.31006V11.0141H24.1672L21.0888 14.1309V11.0141H17.876V2.31006H31.5272Z" fill="#8CBEBD"/>
<path d="M18.0552 23.4106C17.7864 23.4106 17.5752 23.6218 17.5752 23.8842C17.5752 24.153 17.7864 24.3706 18.0552 24.3706C18.3176 24.3706 18.5352 24.153 18.5352 23.8842C18.5352 23.6218 18.3176 23.4106 18.0552 23.4106Z" fill="#505050"/>
<path d="M31.5336 1.83008H17.876C17.6136 1.83008 17.396 2.04768 17.396 2.31008V8.53088H2.09362C1.83122 8.53088 1.61362 8.74848 1.61362 9.01088V27.0589C1.61362 27.2061 1.68402 27.3277 1.78002 27.4173C1.78002 27.4237 1.78642 27.4237 1.78642 27.4237C1.79922 27.4365 1.81202 27.4365 1.82482 27.4493C1.85682 27.4685 1.88242 27.4877 1.91442 27.5005C1.97202 27.5261 2.02962 27.5389 2.09362 27.5389H10.4712V29.5357H8.07762C7.81522 29.5357 7.59762 29.7533 7.59762 30.0157C7.59762 30.2781 7.81522 30.4957 8.07762 30.4957H20.756C21.0184 30.4957 21.236 30.2781 21.236 30.0157C21.236 29.7533 21.0184 29.5357 20.756 29.5357H18.3624V27.5389H26.74C26.804 27.5389 26.868 27.5261 26.9256 27.5005C26.9832 27.4749 27.0408 27.4429 27.0856 27.3981C27.0856 27.3981 27.0856 27.3981 27.092 27.3981C27.124 27.3661 27.1432 27.3277 27.1624 27.2893C27.1688 27.2701 27.188 27.2573 27.1944 27.2445C27.22 27.1869 27.2328 27.1229 27.2328 27.0525V11.4877H31.5464C31.8088 11.4877 32.0264 11.2701 32.0264 11.0077V2.31008C32.0136 2.04768 31.796 1.83008 31.5336 1.83008ZM17.396 29.5421H11.4312V27.5453H17.396V29.5421ZM26.26 23.4109H19.3352C19.0664 23.4109 18.8552 23.6221 18.8552 23.8845C18.8552 24.1533 19.0664 24.3709 19.3352 24.3709H26.26V26.5853H2.57362V24.3645L16.7752 24.3709C17.0376 24.3709 17.2552 24.1533 17.2552 23.8845C17.2552 23.6221 17.0376 23.4109 16.7752 23.4109H15.2328V21.8749C15.2328 19.6669 13.8568 17.7789 11.9176 17.0109C12.82 16.3965 13.4152 15.3597 13.4152 14.1885C13.4152 12.3069 11.8856 10.7709 9.99762 10.7709C8.10962 10.7709 6.58642 12.3069 6.58642 14.1885C6.58642 15.3597 7.18162 16.3965 8.08402 17.0109C6.14482 17.7789 4.76882 19.6669 4.76882 21.8749V23.4109H2.57362V9.49728H17.4024V11.0141C17.4024 11.2765 17.62 11.4941 17.8824 11.4941H20.6152V14.1309C20.6152 14.3229 20.7304 14.5021 20.9096 14.5725C20.9672 14.5981 21.0312 14.6109 21.0952 14.6109C21.2232 14.6109 21.3448 14.5597 21.4344 14.4701L24.372 11.4941H26.26V23.4109ZM7.54642 14.1885C7.54642 12.8317 8.64722 11.7309 10.004 11.7309C11.3608 11.7309 12.4616 12.8317 12.4616 14.1885C12.4616 15.5389 11.3608 16.6461 10.0104 16.6461C8.64722 16.6397 7.54642 15.5389 7.54642 14.1885ZM10.004 17.6061C12.3592 17.6061 14.2728 19.5197 14.2728 21.8749V23.4045H5.73522V21.8749C5.73522 19.5197 7.64882 17.6061 10.004 17.6061ZM31.0536 10.5341H24.1672C24.0392 10.5341 23.9176 10.5853 23.828 10.6749L21.5688 12.9597V11.0077C21.5688 10.7453 21.3512 10.5277 21.0888 10.5277H18.356V2.79008H31.0472V10.5341H31.0536Z" fill="#505050"/>
<path d="M20.7496 5.29252H28.6664C28.9288 5.29252 29.1464 5.07492 29.1464 4.81252C29.1464 4.55012 28.9288 4.33252 28.6664 4.33252H20.7496C20.4872 4.33252 20.2696 4.55012 20.2696 4.81252C20.2696 5.07492 20.4808 5.29252 20.7496 5.29252Z" fill="#505050"/>
<path d="M20.7496 7.25736H28.6664C28.9288 7.25736 29.1464 7.03976 29.1464 6.77736C29.1464 6.51496 28.9288 6.29736 28.6664 6.29736H20.7496C20.4872 6.29736 20.2696 6.51496 20.2696 6.77736C20.2696 7.03976 20.4808 7.25736 20.7496 7.25736Z" fill="#505050"/>
<path d="M20.7496 9.22221H25.8248C26.0872 9.22221 26.3048 9.00461 26.3048 8.74221C26.3048 8.47981 26.0872 8.26221 25.8248 8.26221H20.7496C20.4872 8.26221 20.2696 8.47981 20.2696 8.74221C20.2696 9.00461 20.4808 9.22221 20.7496 9.22221Z" fill="#505050"/>
</g>
<defs>
<clipPath id="clip0">
<rect width="32" height="32" fill="white" transform="translate(0.890411 0.998047)"/>
</clipPath>
</defs>
</svg>
