<svg width="18" height="18" viewBox="0 0 18 18" fill="none" xmlns="http://www.w3.org/2000/svg">
<path d="M13.3044 8.60857L12.5218 11.3477H10.1739V17.9998H7.0435V11.3477H4.69568V8.60857H7.0435V3.91294C7.0402 3.75787 7.0683 3.60374 7.12612 3.45982C7.18395 3.3159 7.27029 3.18517 7.37997 3.07549C7.48964 2.96582 7.62038 2.87947 7.7643 2.82165C7.90822 2.76383 8.06235 2.73572 8.21742 2.73903H12.9131V5.47815H10.1739V8.60857H13.3044Z" fill="#477A6F"/>
<path d="M18 3.13042V14.8695C18 15.6997 17.6702 16.496 17.0831 17.083C16.496 17.6701 15.6998 17.9999 14.8696 17.9999H10.1739V11.3478H12.5217L13.3043 8.60866H10.1739V5.47824H12.913V2.73912H8.21739C8.06232 2.73581 7.90819 2.76391 7.76427 2.82174C7.62035 2.87956 7.48962 2.96591 7.37994 3.07558C7.27027 3.18526 7.18392 3.31599 7.1261 3.45991C7.06827 3.60383 7.04017 3.75796 7.04348 3.91303V8.60866H4.69565V11.3478H7.04348V17.9999H3.13043C2.30019 17.9999 1.50395 17.6701 0.916883 17.083C0.329813 16.496 0 15.6997 0 14.8695V3.13042C0 2.30018 0.329813 1.50395 0.916883 0.91688C1.50395 0.329811 2.30019 0 3.13043 0H14.8696C15.6998 0 16.496 0.329811 17.0831 0.91688C17.6702 1.50395 18 2.30018 18 3.13042Z" fill="#E3E2E4"/>
</svg>
