<svg width="18" height="18" viewBox="0 0 18 18" fill="none" xmlns="http://www.w3.org/2000/svg">
<path d="M12.3415 0H5.6012C2.49973 0 0 2.51083 0 5.61128V12.3498C0 15.4505 2.49973 18 5.6012 18H12.3415C15.443 18 18 15.4505 18 12.3498V5.61128C18 2.51083 15.443 0 12.3415 0ZM16.3041 12.3498C16.3041 14.5171 14.5094 16.2968 12.3415 16.2968H5.6012C3.43314 16.2968 1.65739 14.5171 1.65739 12.3498V5.61128C1.65739 3.44412 3.43314 1.66452 5.6012 1.66452H12.3415C14.5094 1.66452 16.3041 3.44412 16.3041 5.61128V12.3498Z" fill="#E3E2E4"/>
<path d="M8.97127 4.48828C6.48974 4.48828 4.47778 6.49967 4.47778 8.98073C4.47778 11.4614 6.48974 13.4728 8.97127 13.4728C11.4528 13.4728 13.4647 11.4614 13.4647 8.98073C13.4647 6.49967 11.4528 4.48828 8.97127 4.48828ZM8.97127 11.7883C7.42319 11.7883 6.16296 10.5283 6.16296 8.98073C6.16296 7.43173 7.42319 6.17297 8.97127 6.17297C10.5193 6.17297 11.7796 7.43177 11.7796 8.98073C11.7796 10.5283 10.5193 11.7883 8.97127 11.7883Z" fill="#E3E2E4"/>
<path d="M13.8018 3.55273C13.471 3.55273 13.2029 3.82076 13.2029 4.1513C13.2029 4.48188 13.471 4.75003 13.8018 4.75003C14.1322 4.75003 14.4004 4.48188 14.4004 4.1513C14.4004 3.82076 14.1322 3.55273 13.8018 3.55273Z" fill="#E3E2E4"/>
</svg>
