<svg width="20" height="14" viewBox="0 0 20 14" fill="none" xmlns="http://www.w3.org/2000/svg">
<path fill-rule="evenodd" clip-rule="evenodd" d="M0.375 7.00001C0.375 6.81768 0.447433 6.64281 0.576364 6.51388C0.705295 6.38495 0.880164 6.31251 1.0625 6.31251H17.2779L12.9508 1.98676C12.8217 1.85767 12.7491 1.68258 12.7491 1.50001C12.7491 1.31745 12.8217 1.14236 12.9508 1.01326C13.0798 0.88417 13.2549 0.811646 13.4375 0.811646C13.6201 0.811646 13.7952 0.88417 13.9242 1.01326L19.4242 6.51326C19.4883 6.57713 19.5391 6.65299 19.5737 6.73652C19.6084 6.82004 19.6262 6.90958 19.6262 7.00001C19.6262 7.09044 19.6084 7.17998 19.5737 7.26351C19.5391 7.34703 19.4883 7.4229 19.4242 7.48676L13.9242 12.9868C13.7952 13.1159 13.6201 13.1884 13.4375 13.1884C13.2549 13.1884 13.0798 13.1159 12.9508 12.9868C12.8217 12.8577 12.7491 12.6826 12.7491 12.5C12.7491 12.3174 12.8217 12.1424 12.9508 12.0133L17.2779 7.68751H1.0625C0.880164 7.68751 0.705295 7.61508 0.576364 7.48615C0.447433 7.35722 0.375 7.18235 0.375 7.00001Z" fill="#2B8AFF"/>
</svg>
