<svg width="13" height="15" viewBox="0 0 13 15" fill="none" xmlns="http://www.w3.org/2000/svg">
<path d="M7.54446 0H1.50889C0.675984 0 0 0.672 0 1.5V13.5C0 14.328 0.675984 15 1.50889 15H10.5623C11.3952 15 12.0711 14.328 12.0711 13.5V4.5L7.54446 0ZM3.88917 11.5905C3.56778 11.856 3.07965 11.9813 2.48288 11.9813C2.12452 11.9813 1.87178 11.9588 1.69977 11.9363V8.958C1.95326 8.9175 2.28295 8.89575 2.63151 8.89575C3.21092 8.89575 3.58664 8.99925 3.88012 9.21975C4.19699 9.45375 4.39616 9.82725 4.39616 10.3612C4.39616 10.9425 4.18341 11.343 3.88917 11.5905ZM6.14497 12C5.23963 12 4.71076 11.3205 4.71076 10.4565C4.71076 9.54825 5.29395 8.8695 6.19476 8.8695C7.13103 8.8695 7.64254 9.56625 7.64254 10.4032C7.64179 11.397 7.03521 12 6.14497 12ZM9.65691 11.4285C9.86439 11.4285 10.0952 11.3828 10.2318 11.3295L10.3359 11.8643C10.2092 11.9272 9.92399 11.9948 9.55356 11.9948C8.49959 11.9948 7.95639 11.343 7.95639 10.479C7.95639 9.44475 8.69801 8.8695 9.62146 8.8695C9.97906 8.8695 10.2499 8.9415 10.3721 9.0045L10.2318 9.549C10.0907 9.4905 9.89683 9.4365 9.65239 9.4365C9.10466 9.4365 8.67915 9.765 8.67915 10.44C8.67915 11.0468 9.04129 11.4285 9.65691 11.4285ZM7.54446 5.25C7.12726 5.25 6.79002 5.25 6.79002 5.25V1.5L10.5623 5.25H7.54446Z" fill="#343434"/>
</svg>
