<svg width="19" height="19" viewBox="0 0 19 19" fill="none" xmlns="http://www.w3.org/2000/svg">
<g clip-path="url(#clip0_234_930)">
<path d="M14.4471 10.6162C13.8249 11.8774 12.9818 13.1338 12.1196 14.2619C11.3018 15.3254 10.4273 16.3442 9.5 17.3137C8.57266 16.3442 7.69819 15.3254 6.88038 14.2619C6.01825 13.1338 5.17513 11.8774 4.55288 10.6162C3.9235 9.34206 3.5625 8.14862 3.5625 7.125C3.5625 5.55028 4.18806 4.04005 5.30155 2.92655C6.41505 1.81306 7.92528 1.1875 9.5 1.1875C11.0747 1.1875 12.5849 1.81306 13.6984 2.92655C14.8119 4.04005 15.4375 5.55028 15.4375 7.125C15.4375 8.14862 15.0753 9.34206 14.4471 10.6162ZM9.5 19C9.5 19 16.625 12.2479 16.625 7.125C16.625 5.23533 15.8743 3.42306 14.5381 2.08686C13.2019 0.750667 11.3897 0 9.5 0C7.61033 0 5.79806 0.750667 4.46186 2.08686C3.12567 3.42306 2.375 5.23533 2.375 7.125C2.375 12.2479 9.5 19 9.5 19Z" fill="#2B8AFF"/>
<path d="M9.5 9.5C8.87011 9.5 8.26602 9.24978 7.82062 8.80438C7.37522 8.35898 7.125 7.75489 7.125 7.125C7.125 6.49511 7.37522 5.89102 7.82062 5.44562C8.26602 5.00022 8.87011 4.75 9.5 4.75C10.1299 4.75 10.734 5.00022 11.1794 5.44562C11.6248 5.89102 11.875 6.49511 11.875 7.125C11.875 7.75489 11.6248 8.35898 11.1794 8.80438C10.734 9.24978 10.1299 9.5 9.5 9.5ZM9.5 10.6875C10.4448 10.6875 11.351 10.3122 12.0191 9.64407C12.6872 8.97597 13.0625 8.06983 13.0625 7.125C13.0625 6.18017 12.6872 5.27403 12.0191 4.60593C11.351 3.93783 10.4448 3.5625 9.5 3.5625C8.55517 3.5625 7.64903 3.93783 6.98093 4.60593C6.31283 5.27403 5.9375 6.18017 5.9375 7.125C5.9375 8.06983 6.31283 8.97597 6.98093 9.64407C7.64903 10.3122 8.55517 10.6875 9.5 10.6875Z" fill="#2B8AFF"/>
</g>
<defs>
<clipPath id="clip0_234_930">
<rect width="19" height="19" fill="white"/>
</clipPath>
</defs>
</svg>
