<svg width="80" height="80" viewBox="0 0 80 80" fill="none" xmlns="http://www.w3.org/2000/svg">
<g clip-path="url(#clip0_419_2)">
<path d="M71.2472 64.9703C76.7233 58.1266 80 49.4466 80 40C80 17.9086 62.0914 0 40 0C17.9086 0 0 17.9086 0 40C0 49.4466 3.27672 58.1266 8.75281 64.9703H71.2472Z" fill="#2A8AFF"/>
<path d="M71.25 3.125V64.9703C63.9203 74.1312 52.6453 80 40 80C30.5406 80 21.8484 76.7156 15 71.2266C12.6937 69.3781 10.5969 67.2781 8.75 64.9703V23.4375L25.9375 17.1875L32.1875 0H68.125C69.8516 0 71.25 1.39844 71.25 3.125Z" fill="#D9EAFC"/>
<path d="M32.1875 17.1875V25C32.1875 26.7266 30.7891 28.125 29.0625 28.125H22.8125C18.4984 28.125 15 31.6234 15 35.9375V71.2266C12.6937 69.3781 10.5969 67.2781 8.75 64.9703V23.4375L32.1875 17.1875Z" fill="#C3DDF4"/>
<path d="M32.1875 0V20.3125C32.1875 22.0384 30.7884 23.4375 29.0625 23.4375H8.75L32.1875 0Z" fill="white"/>
<path d="M35.3125 28.2812H71.25C72.9759 28.2812 74.375 29.6803 74.375 31.4062V48.5938C74.375 50.3197 72.9759 51.7188 71.25 51.7188H35.3125C33.5866 51.7188 32.1875 50.3197 32.1875 48.5938V31.4062C32.1875 29.6803 33.5866 28.2812 35.3125 28.2812Z" fill="#FF6576"/>
<path d="M38.6691 48.5938V31.4062C38.6691 29.6803 40.0681 28.2812 41.7941 28.2812H35.3125C33.5866 28.2812 32.1875 29.6803 32.1875 31.4062V48.5938C32.1875 50.3197 33.5866 51.7188 35.3125 51.7188H41.7941C40.0681 51.7188 38.6691 50.3197 38.6691 48.5938V48.5938Z" fill="#FF6576"/>
<path d="M62.8359 46.9884C62.1887 46.9884 61.6641 46.4638 61.6641 45.8166V34.1836C61.6641 33.5364 62.1887 33.0117 62.8359 33.0117H67.5508C68.198 33.0117 68.7227 33.5364 68.7227 34.1836C68.7227 34.8308 68.198 35.3555 67.5508 35.3555H64.0078V45.8166C64.0078 46.4638 63.4831 46.9884 62.8359 46.9884Z" fill="white"/>
<path d="M67.1763 41.0615H62.8359C62.1887 41.0615 61.6641 40.5368 61.6641 39.8896C61.6641 39.2425 62.1887 38.7178 62.8359 38.7178H67.1763C67.8234 38.7178 68.3481 39.2425 68.3481 39.8896C68.3481 40.5368 67.8234 41.0615 67.1763 41.0615Z" fill="white"/>
<path d="M50.3359 46.6729C49.6887 46.6729 49.1641 46.1483 49.1641 45.5011V34.3254C49.1641 33.6783 49.6887 33.1536 50.3359 33.1536C50.9831 33.1536 51.5078 33.6783 51.5078 34.3254V45.5011C51.5078 46.1484 50.9831 46.6729 50.3359 46.6729Z" fill="white"/>
<path d="M50.3552 46.8578C50.0459 46.8578 49.7492 46.7356 49.5295 46.5176C49.3089 46.2987 49.1844 46.0009 49.1833 45.6901C49.1833 45.6901 49.1684 41.5679 49.1684 39.9873C49.1684 38.6906 49.1602 34.3161 49.1602 34.3161C49.1595 34.0048 49.2828 33.7062 49.5027 33.4859C49.7225 33.2656 50.0208 33.1418 50.332 33.1418H53.5528C57.0006 33.1418 59.317 35.8978 59.317 39.9998C59.317 43.9017 56.9411 46.7753 53.6675 46.8325C52.7516 46.8484 50.4567 46.8573 50.3595 46.8576C50.3581 46.8578 50.3566 46.8578 50.3552 46.8578ZM51.5061 35.4856C51.5086 36.8783 51.5122 39.1203 51.5122 39.9873C51.5122 41.027 51.5186 43.1681 51.523 44.5083C52.2552 44.504 53.1472 44.4975 53.6266 44.489C55.9259 44.4489 56.9733 42.1337 56.9733 39.9998C56.9733 37.8175 56.0747 35.4856 53.5528 35.4856H51.5061Z" fill="white"/>
<path d="M39.0117 47.0315C38.3645 47.0315 37.8398 46.5068 37.8398 45.8596V34.1409C37.8398 33.4937 38.3645 32.969 39.0117 32.969C39.6589 32.969 40.1836 33.4937 40.1836 34.1409V45.8596C40.1836 46.5068 39.6589 47.0315 39.0117 47.0315V47.0315Z" fill="white"/>
<path d="M39.0344 41.941C38.7261 41.941 38.4303 41.8196 38.2108 41.6029C37.9895 41.3844 37.8644 41.0871 37.8625 40.7762C37.8625 40.7762 37.848 38.3701 37.848 37.4474C37.848 36.6921 37.8398 34.1441 37.8398 34.1441C37.8389 33.8327 37.9619 33.5337 38.1817 33.313C38.4016 33.0924 38.7003 32.9685 39.0117 32.9685H42.2747C44.7802 32.9685 46.8184 34.9777 46.8184 37.4474C46.8184 39.9171 44.7802 41.9263 42.2747 41.9263C41.3709 41.9263 39.0417 41.9409 39.0417 41.9409C39.0392 41.941 39.0369 41.941 39.0344 41.941ZM40.187 35.3124C40.1892 36.0882 40.1917 37.0349 40.1917 37.4476C40.1917 37.9376 40.1958 38.8477 40.1997 39.5905C40.9213 39.5868 41.7966 39.5827 42.2747 39.5827C43.4672 39.5827 44.4747 38.6049 44.4747 37.4476C44.4747 36.2902 43.4672 35.3124 42.2747 35.3124H40.187Z" fill="white"/>
</g>
<defs>
<clipPath id="clip0_419_2">
<rect width="80" height="80" fill="white"/>
</clipPath>
</defs>
</svg>
