<svg width="98" height="98" viewBox="0 0 98 98" fill="none" xmlns="http://www.w3.org/2000/svg">
<path fill-rule="evenodd" clip-rule="evenodd" d="M49 1C75.6024 1 97 22.3976 97 49C97 75.6024 75.6024 97 49 97C22.3976 97 1 75.6024 1 49C1 22.5904 22.5904 1 49 1Z" fill="#97C3F9" stroke="#93C1F9" stroke-width="0.604135" stroke-miterlimit="22.9256"/>
<path fill-rule="evenodd" clip-rule="evenodd" d="M55.6241 62.1874C56.6789 54.7761 65.8205 54.2591 69.6881 58.3956C71.7977 60.6362 71.7978 62.3598 71.2704 63.5662C67.4027 64.6004 59.3159 63.2215 55.6241 62.1874ZM25.7379 52.7078C29.9571 51.1566 36.4618 50.8119 41.2084 51.1567C41.56 51.6737 41.3842 51.329 41.56 52.1908C41.7358 53.2249 41.56 52.0184 41.56 52.8802C41.2084 59.085 28.0233 62.8768 25.7379 52.7078ZM67.7543 45.8136C71.2704 46.5031 74.259 46.8478 77.9508 46.6754C77.0718 48.916 75.6654 49.9502 72.501 49.6055C69.5123 49.4331 68.2817 48.2266 67.7543 45.8136ZM52.2839 44.6072L62.1287 45.2966C62.1287 49.7778 52.2839 49.0884 52.2839 44.6072ZM19.9365 42.5389C20.4639 37.8853 28.7265 37.3682 29.9571 41.5048C29.7813 41.5048 29.7814 41.6771 29.6056 41.6771C29.6056 41.6771 29.4297 41.6771 29.2539 41.8495L19.9365 42.5389ZM35.407 41.1601C35.9344 38.9195 37.5166 37.713 40.1536 37.5406C43.1422 37.3682 45.076 38.0577 45.6034 40.2983L35.407 41.1601ZM15.3657 28.4057C15.1899 33.2317 16.4205 40.9877 16.9479 45.986C17.4753 52.7079 18.0027 56.672 21.6945 60.8086C24.3315 63.9109 30.1329 66.6686 36.4618 65.8068C42.439 64.9451 45.4276 61.498 48.2404 58.0509C50.8774 73.0458 66.5237 75.2864 74.259 69.254C78.8298 65.6345 80.412 62.1874 81.1152 54.4314C81.6426 48.0543 82.3458 41.3324 82.8732 34.7829C77.4234 34.4382 70.0398 35.1276 65.1173 34.4382C61.7771 33.9211 52.9871 31.8529 50.1743 32.0252L49.2952 39.2642L48.0646 25.6481C44.3728 25.4758 36.9892 27.3716 32.9458 28.0611C27.6717 28.7505 20.6397 28.2334 15.3657 28.4057Z" fill="#FCFCFC"/>
</svg>
