<svg width="98" height="98" viewBox="0 0 98 98" fill="none" xmlns="http://www.w3.org/2000/svg">
<path fill-rule="evenodd" clip-rule="evenodd" d="M49 1C75.6024 1 97 22.3976 97 49C97 75.6024 75.6024 97 49 97C22.3976 97 1 75.6024 1 49C1 22.5904 22.5904 1 49 1Z" fill="#97C3F9" stroke="#93C1F9" stroke-width="0.604135" stroke-miterlimit="22.9256"/>
<path d="M66.4852 31.3009C69.2045 31.3009 71.4089 29.0821 71.4089 26.3452C71.4089 23.6082 69.2045 21.3894 66.4852 21.3894C63.7659 21.3894 61.5615 23.6082 61.5615 26.3452C61.5615 29.0821 63.7659 31.3009 66.4852 31.3009Z" fill="#FCFCFC"/>
<path d="M31.3162 31.3009C34.0355 31.3009 36.2399 29.0821 36.2399 26.3452C36.2399 23.6082 34.0355 21.3894 31.3162 21.3894C28.597 21.3894 26.3926 23.6082 26.3926 26.3452C26.3926 29.0821 28.597 31.3009 31.3162 31.3009Z" fill="#FCFCFC"/>
<path d="M48.9007 31.3009C51.62 31.3009 53.8244 29.0821 53.8244 26.3452C53.8244 23.6082 51.62 21.3894 48.9007 21.3894C46.1815 21.3894 43.9771 23.6082 43.9771 26.3452C43.9771 29.0821 46.1815 31.3009 48.9007 31.3009Z" fill="#FCFCFC"/>
<path d="M61.4212 49.4248L58.256 37.6726C58.1153 37.2478 57.9043 36.8231 57.623 36.5399C56.2865 35.1239 54.5984 34.062 52.7696 33.4248C51.5739 33 50.3078 32.7877 48.9714 32.7877C47.635 32.7877 46.3689 33 45.1731 33.4248C43.274 34.062 41.6562 35.1239 40.3198 36.5399C40.0384 36.8939 39.8274 37.2478 39.6868 37.6726L36.5215 49.4248C36.2402 50.5576 36.8029 51.8319 37.9986 52.1151C38.2097 52.1859 38.3503 52.1859 38.5613 52.1859C39.4757 52.1859 40.3198 51.5487 40.6012 50.6284L43.4147 40.2921V76.3275H47.635V56.0797H50.4485V76.2567H54.6688V40.2921L57.4823 50.6284C57.7636 51.5487 58.6077 52.1859 59.5221 52.1859C59.7331 52.1859 59.8738 52.1859 60.0848 52.1151C61.0695 51.8319 61.7026 50.5576 61.4212 49.4248Z" fill="#FCFCFC"/>
<path d="M35.0445 49.0708L38.2098 37.3186C38.3504 36.6814 38.7021 36.115 39.0538 35.6195C37.9284 34.6283 36.5216 33.8495 35.0445 33.354C33.8488 32.9292 32.5827 32.7168 31.2463 32.7168C29.9099 32.7168 28.6438 32.9292 27.448 33.354C25.5489 33.9911 23.9311 35.0531 22.5947 36.469C22.3133 36.823 22.1023 37.177 21.9617 37.6018L18.7964 49.4248C18.5151 50.5575 19.0778 51.8318 20.2735 52.115C20.4846 52.1858 20.6252 52.1858 20.8362 52.1858C21.7506 52.1858 22.5947 51.5487 22.8761 50.6283L25.6896 40.292V76.3274H29.9099V56.0796H32.7234V76.2566H36.9437V53.3186C35.4666 52.6106 34.6225 50.8407 35.0445 49.0708Z" fill="#FCFCFC"/>
<path d="M79.0059 49.4248L75.7704 37.6726C75.6297 37.2478 75.4187 36.8231 75.1373 36.5399C73.8009 35.1239 72.1128 34.062 70.284 33.4248C69.0883 33 67.8222 32.7877 66.4857 32.7877C65.1493 32.7877 63.8832 33 62.6875 33.4248C61.2104 33.9204 59.874 34.6992 58.6782 35.6903C59.1003 36.1859 59.3816 36.7523 59.5223 37.3186L62.6875 49.0708C63.1799 50.8408 62.2655 52.6107 60.7884 53.3186V76.3275H65.0086V56.0797H67.8222V76.2567H72.0425V40.2921L74.856 50.6284C75.1373 51.5487 75.9814 52.1859 76.8958 52.1859C77.1068 52.1859 77.2475 52.1859 77.4585 52.1151C78.6542 51.8319 79.2873 50.5576 79.0059 49.4248Z" fill="#FCFCFC"/>
</svg>
