<svg width="48" height="49" viewBox="0 0 48 49" fill="none" xmlns="http://www.w3.org/2000/svg">
<path d="M23.0006 8.16699C23.5526 8.16699 24.0006 7.71068 24.0006 7.14616V3.06283C24.0006 2.4983 23.5526 2.04199 23.0006 2.04199C22.4486 2.04199 22.0006 2.4983 22.0006 3.06283V7.14616C22.0006 7.71068 22.4486 8.16699 23.0006 8.16699ZM28.7626 8.87341L31.7006 5.8742C32.1066 5.45974 32.1066 4.78905 31.7006 4.37357C31.2946 3.96014 30.6376 3.96014 30.2316 4.37357L27.2936 7.37278C26.8876 7.78724 26.8876 8.45895 27.2936 8.87341C27.6996 9.28787 28.3566 9.28787 28.7626 8.87341ZM17.2386 8.87341C17.6446 9.28685 18.3016 9.28685 18.7076 8.87341C19.1136 8.45997 19.1136 7.78826 18.7076 7.37278L15.7696 4.37357C15.3636 3.96014 14.7056 3.96014 14.2996 4.37357C13.8946 4.78803 13.8946 5.45872 14.2996 5.8742L17.2386 8.87341ZM42.0006 22.4587H32.6186L28.8946 14.8565L28.8856 14.8616C28.7216 14.5268 28.3916 14.292 28.0006 14.292H10.0006C9.44861 14.292 9.00061 14.7483 9.00061 15.3128C9.00061 15.4772 9.04761 15.6272 9.11561 15.764L9.10661 15.7691L11.0006 19.6371V45.9378C11.0006 46.5023 11.4486 46.9586 12.0006 46.9586H42.0006C42.5526 46.9586 43.0006 46.5023 43.0006 45.9378V23.4795C43.0006 22.4005 42.0006 22.4587 42.0006 22.4587Z" fill="#FBFF4E"/>
<path d="M46.0007 11.2293C46.0007 10.6648 45.5527 10.2085 45.0007 10.2085H35.0007C34.4487 10.2085 34.0007 10.6648 34.0007 11.2293C34.0007 11.7939 34.4487 12.2502 35.0007 12.2502H43.3827L39.3827 20.4168H32.6187L27.8947 10.773L27.8857 10.7781C27.7217 10.4433 27.3917 10.2085 27.0007 10.2085H3.0007C2.4487 10.2085 2.0007 10.6648 2.0007 11.2293C2.0007 11.3937 2.0477 11.5437 2.1157 11.6805L2.1067 11.6856L7.0007 21.6786V43.896C7.0007 44.4605 7.4487 44.9168 8.0007 44.9168H40.0007C40.5527 44.9168 41.0007 44.4605 41.0007 43.896V21.6786L45.8957 11.6856L45.8867 11.6805C45.9537 11.5437 46.0007 11.3937 46.0007 11.2293ZM4.6187 12.2502H26.3827L30.3827 20.4168H8.6187L4.6187 12.2502ZM31.0007 41.8543C31.0007 42.4189 30.5527 42.8752 30.0007 42.8752H9.0007V22.4585H30.0007C30.5527 22.4585 31.0007 22.9148 31.0007 23.4793V41.8543ZM39.0007 42.8752H34.0007C33.4487 42.8752 33.0007 42.4189 33.0007 41.8543V23.4793C33.0007 22.9148 33.4487 22.4585 34.0007 22.4585H39.0007V42.8752Z" fill="#384D68"/>
</svg>
