<svg width="80" height="80" viewBox="0 0 80 80" fill="none" xmlns="http://www.w3.org/2000/svg">
<path d="M76.25 50H62.5C62.3358 50 62.1733 50.0323 62.0216 50.0951C61.87 50.158 61.7322 50.25 61.6161 50.3661C61.5 50.4822 61.408 50.62 61.3451 50.7716C61.2823 50.9233 61.25 51.0858 61.25 51.25V52.9258L60 53.4615V36.25C60 36.0858 59.9677 35.9233 59.9049 35.7716C59.842 35.62 59.75 35.4822 59.6339 35.3661C59.5178 35.25 59.38 35.158 59.2284 35.0951C59.0767 35.0323 58.9142 35 58.75 35H21.25C21.0858 35 20.9233 35.0323 20.7716 35.0951C20.62 35.158 20.4822 35.25 20.3661 35.3661C20.25 35.4822 20.158 35.62 20.0951 35.7716C20.0323 35.9233 20 36.0858 20 36.25V51.3379C19.4839 51.2804 18.9651 51.251 18.4458 51.25H16.25V50C16.25 49.8358 16.2177 49.6733 16.1549 49.5216C16.092 49.37 16 49.2322 15.8839 49.1161C15.7678 49 15.63 48.908 15.4784 48.8451C15.3267 48.7823 15.1642 48.75 15 48.75H3.75C3.58585 48.75 3.4233 48.7823 3.27164 48.8451C3.11998 48.908 2.98218 49 2.86611 49.1161C2.75003 49.2322 2.65796 49.37 2.59514 49.5216C2.53232 49.6733 2.5 49.8358 2.5 50V65C2.5 65.1642 2.53232 65.3267 2.59514 65.4784C2.65796 65.63 2.75003 65.7678 2.86611 65.8839C2.98218 66 3.11998 66.092 3.27164 66.1549C3.4233 66.2177 3.58585 66.25 3.75 66.25H15C15.1642 66.25 15.3267 66.2177 15.4784 66.1549C15.63 66.092 15.7678 66 15.8839 65.8839C16 65.7678 16.092 65.63 16.1549 65.4784C16.2177 65.3267 16.25 65.1642 16.25 65V63.75H17.091C20.4936 66.1805 24.5685 67.4911 28.75 67.5H33.965C33.7648 68.0656 33.7031 68.6709 33.7854 69.2653C33.8676 69.8596 34.0913 70.4255 34.4377 70.9154C34.784 71.4053 35.2429 71.8049 35.7758 72.0807C36.3087 72.3564 36.8999 72.5002 37.4999 72.5H50.1412C52.3311 72.5022 54.4948 72.0238 56.4796 71.0985C58.4644 70.1732 60.2219 68.8235 61.6281 67.1448C61.861 67.3727 62.1741 67.5003 62.5 67.5H76.25C76.4142 67.5 76.5767 67.4677 76.7284 67.4049C76.88 67.342 77.0178 67.25 77.1339 67.1339C77.25 67.0178 77.342 66.88 77.4049 66.7284C77.4677 66.5767 77.5 66.4142 77.5 66.25V51.25C77.5 51.0858 77.4677 50.9233 77.4049 50.7716C77.342 50.62 77.25 50.4822 77.1339 50.3661C77.0178 50.25 76.88 50.158 76.7284 50.0951C76.5767 50.0323 76.4142 50 76.25 50ZM13.75 63.75H5V51.25H13.75V63.75ZM57.5 54.5423C54.5387 55.8933 51.8294 57.7393 49.4886 60.0009L45.0006 60H45V37.5H57.5V54.5423ZM28.75 37.5H36.25V41.9822L35.8839 41.6161C35.6494 41.3817 35.3315 41.25 35 41.25C34.6685 41.25 34.3506 41.3817 34.1161 41.6161L32.5 43.2322L30.8839 41.6161C30.6494 41.3817 30.3315 41.25 30 41.25C29.6685 41.25 29.3506 41.3817 29.1161 41.6161L28.75 41.9822V37.5ZM22.5 37.5H26.25V45C26.25 45.2472 26.3233 45.4889 26.4606 45.6945C26.598 45.9 26.7932 46.0603 27.0216 46.1549C27.25 46.2495 27.5014 46.2742 27.7439 46.226C27.9863 46.1777 28.2091 46.0587 28.3839 45.8839L30 44.2678L31.6161 45.8839C31.8506 46.1183 32.1685 46.25 32.5 46.25C32.8315 46.25 33.1494 46.1183 33.3839 45.8839L35 44.2678L36.6161 45.8839C36.7909 46.0587 37.0137 46.1777 37.2561 46.226C37.4986 46.2742 37.75 46.2495 37.9784 46.1549C38.2068 46.0603 38.402 45.9 38.5393 45.6945C38.6767 45.4889 38.75 45.2472 38.75 45V37.5H42.5V60.9554L42.4985 60.9567C41.8123 60.3402 40.9223 59.9994 39.9998 60.0001L36.0349 60.0002C36.235 59.4347 36.2965 58.8293 36.2142 58.235C36.1319 57.6408 35.9082 57.0749 35.5619 56.585C35.2155 56.0952 34.7567 55.6955 34.2239 55.4197C33.6911 55.1439 33.0999 55 32.5 55H32.4994L28.0043 55.0009C26.4364 53.5397 24.5529 52.4592 22.5 51.8434V37.5ZM18.25 61.5C18.0336 61.3377 17.7705 61.25 17.5 61.25H16.25V53.75H18.4458C19.9639 53.7459 21.4677 54.0429 22.8701 54.6239C24.2726 55.2049 25.5459 56.0583 26.6163 57.1348C26.7324 57.2509 26.8702 57.343 27.0218 57.4058C27.1735 57.4687 27.3361 57.501 27.5002 57.501H27.5005L32.4998 57.5C32.8314 57.4999 33.1493 57.6316 33.3838 57.8659C33.6183 58.1003 33.75 58.4182 33.7501 58.7497C33.7502 59.0813 33.6186 59.3992 33.3842 59.6337C33.1498 59.8682 32.8319 59.9999 32.5004 60H26.25V62.5H31.2505V62.5004L39.9999 62.5001C40.1642 62.4999 40.3269 62.5321 40.4787 62.5948C40.6305 62.6575 40.7685 62.7495 40.8847 62.8656C41.0009 62.9817 41.0931 63.1196 41.156 63.2713C41.219 63.423 41.2514 63.5857 41.2514 63.75C41.2514 63.9142 41.219 64.0769 41.1561 64.2286C41.0932 64.3804 41.001 64.5182 40.8848 64.6343C40.7686 64.7504 40.6306 64.8425 40.4788 64.9052C40.327 64.968 40.1643 65.0002 40.0001 65H28.75C24.9648 64.9921 21.2829 63.7648 18.25 61.5ZM60.5418 64.4337C59.402 66.1476 57.8558 67.5527 56.041 68.5239C54.2263 69.4951 52.1995 70.0022 50.1412 70H37.4999C37.3356 70.0003 37.1728 69.9682 37.0208 69.9055C36.8689 69.8428 36.7308 69.7508 36.6145 69.6347C36.4982 69.5186 36.4059 69.3807 36.3429 69.2289C36.28 69.0771 36.2476 68.9143 36.2476 68.75C36.2476 68.5856 36.28 68.4229 36.343 68.2711C36.4059 68.1193 36.4982 67.9814 36.6146 67.8653C36.7309 67.7492 36.869 67.6572 37.0209 67.5945C37.1728 67.5318 37.3356 67.4998 37.5 67.5001L46.2495 67.5004V67.5H51.25V65H44.9998C44.8357 65 44.6731 64.9677 44.5215 64.9048C44.3698 64.842 44.232 64.7499 44.116 64.6339C43.8816 64.3994 43.7499 64.0815 43.7499 63.75C43.7499 63.4185 43.8816 63.1005 44.116 62.8661C44.3505 62.6317 44.6684 62.5 44.9999 62.5H45.0001L49.9995 62.501H49.9998C50.1639 62.501 50.3265 62.4687 50.4782 62.4058C50.6298 62.343 50.7676 62.2509 50.8837 62.1348C53.2468 59.7672 56.042 57.8746 59.1177 56.5595L59.8399 56.25H60V56.1814L61.25 55.6457V63.3715L60.5418 64.4337ZM75 65H63.75V52.5H75V65Z" fill="#FCE45C"/>
<path d="M21.25 16.25H16.25C16.0858 16.25 15.9233 16.2823 15.7716 16.3451C15.62 16.408 15.4822 16.5 15.3661 16.6161C15.25 16.7322 15.158 16.87 15.0951 17.0216C15.0323 17.1733 15 17.3358 15 17.5V22.5H17.5V20.5177L24.1161 27.1339L25.8839 25.3661L19.2677 18.75H21.25V16.25Z" fill="#FCE45C"/>
<path d="M6.61615 40.8839L8.38388 39.1162L6.76775 37.5001H15V35.0001H6.76775L8.38388 33.3839L6.61615 31.6162L2.86615 35.3662C2.75007 35.4823 2.65799 35.6201 2.59516 35.7717C2.53234 35.9234 2.5 36.0859 2.5 36.2501C2.5 36.4142 2.53234 36.5768 2.59516 36.7284C2.65799 36.8801 2.75007 37.0179 2.86615 37.1339L6.61615 40.8839Z" fill="#FCE45C"/>
<path d="M41.2501 23.75V11.7678L42.8662 13.3839L44.6339 11.6162L40.8839 7.86615C40.7679 7.75007 40.6301 7.65799 40.4784 7.59516C40.3268 7.53234 40.1642 7.5 40.0001 7.5C39.8359 7.5 39.6734 7.53234 39.5217 7.59516C39.3701 7.65799 39.2323 7.75007 39.1162 7.86615L35.3662 11.6161L37.1339 13.3838L38.7501 11.7677V23.75H41.2501Z" fill="#FCE45C"/>
<path d="M65.0001 22.5V17.5C65.0001 17.3358 64.9677 17.1733 64.9049 17.0216C64.8421 16.87 64.75 16.7322 64.634 16.6161C64.5179 16.5 64.3801 16.408 64.2284 16.3451C64.0768 16.2823 63.9142 16.25 63.7501 16.25H58.7501V18.75H60.7323L54.1162 25.3661L55.8839 27.1339L62.5001 20.5177V22.5H65.0001Z" fill="#FCE45C"/>
<path d="M73.3839 31.6162L71.6161 33.3839L73.2323 35.0001H65V37.5001H73.2323L71.6161 39.1162L73.3839 40.8839L77.1339 37.1339C77.2499 37.0179 77.342 36.8801 77.4049 36.7284C77.4677 36.5768 77.5 36.4142 77.5 36.2501C77.5 36.0859 77.4677 35.9234 77.4049 35.7717C77.342 35.6201 77.2499 35.4823 77.1339 35.3662L73.3839 31.6162Z" fill="#FCE45C"/>
</svg>
