<svg width="98" height="98" viewBox="0 0 98 98" fill="none" xmlns="http://www.w3.org/2000/svg">
<path fill-rule="evenodd" clip-rule="evenodd" d="M49 1C75.6024 1 97 22.3976 97 49C97 75.6024 75.6024 97 49 97C22.3976 97 1 75.6024 1 49C1 22.5904 22.5904 1 49 1Z" fill="#97C3F9" stroke="#93C1F9" stroke-width="0.604135" stroke-miterlimit="22.9256"/>
<path fill-rule="evenodd" clip-rule="evenodd" d="M30.4214 67.6295C42.2784 68.4386 40.2688 69.0455 44.4891 72.4841L48.3075 75.5183C44.2882 78.1479 41.6756 76.9342 37.6563 75.1137C33.0341 73.091 30.4214 71.6751 30.4214 67.6295ZM49.1113 19.6902C57.3509 19.6902 64.5857 22.9266 70.0118 28.3881C75.4379 33.8495 78.6533 41.1314 78.6533 49.4247C78.6533 57.718 75.4379 65 70.0118 70.4614C64.5857 75.9228 57.3509 79.1592 49.1113 79.1592C40.8717 79.1592 33.6369 75.9228 28.2109 70.4614C22.7848 65 19.5693 57.718 19.5693 49.4247C19.5693 41.1314 22.7848 33.8495 28.2109 28.3881C33.6369 23.1289 41.0726 19.6902 49.1113 19.6902ZM67.3993 71.4728C68.0022 70.8659 68.806 70.2591 69.4089 69.6523C71.4186 67.6295 73.2273 65.2022 74.4331 62.5727L74.2321 58.9317C72.4234 59.1339 71.2176 60.5499 70.0118 61.359C62.5761 66.4159 68.0021 60.9544 63.5809 68.6409C62.1741 71.0682 61.3703 71.2705 61.3703 72.8887C65.5906 73.091 64.7867 72.2819 67.6002 71.2705C67.3992 71.2705 67.3993 71.4728 67.3993 71.4728ZM24.7944 56.9089C20.7751 54.8861 20.7751 50.6384 21.579 45.3792C22.3829 39.9178 23.1867 38.5018 27.608 36.6813C27.407 39.5132 28.8137 46.5929 28.4118 48.0088C27.4069 50.6384 25.3973 53.2679 24.7944 56.9089ZM58.1548 57.3135C55.7432 58.1226 52.3268 58.5271 49.3123 59.1339C44.4891 60.1453 44.891 59.5385 42.8814 56.0998C37.2543 45.7837 38.2591 48.8179 43.0823 43.1542C49.1113 36.4791 46.9007 38.0973 55.9442 41.9405C59.9635 43.761 59.9635 43.3565 59.3606 48.2111C58.9587 51.2452 58.7577 54.8862 58.1548 57.3135ZM74.2321 46.1883C72.4234 44.9747 72.0215 42.5474 66.9973 39.5132C66.3944 34.6586 66.1935 33.4449 64.7867 28.9949C68.0022 29.1972 69.007 29.1972 70.4138 31.0176C73.6292 34.8609 77.6485 41.536 74.2321 46.1883ZM35.6466 28.1858C36.8524 23.7357 38.6611 22.9266 43.6853 21.9152C48.3075 21.1061 51.9248 20.7016 54.1354 23.5334L46.4987 27.5789C45.6949 27.9835 37.6563 27.9835 35.6466 28.1858Z" fill="#FCFCFC"/>
</svg>
