<svg width="98" height="98" viewBox="0 0 98 98" fill="none" xmlns="http://www.w3.org/2000/svg">
<path fill-rule="evenodd" clip-rule="evenodd" d="M49 1C75.6024 1 97 22.3976 97 49C97 75.6024 75.6024 97 49 97C22.3976 97 1 75.6024 1 49C1 22.5904 22.5904 1 49 1Z" fill="#97C3F9" stroke="#93C1F9" stroke-width="0.604135" stroke-miterlimit="22.9256"/>
<path fill-rule="evenodd" clip-rule="evenodd" d="M55.9479 37.3585C54.498 38.9924 53.0481 43.4275 52.2195 45.7617L64.026 53.9315C65.2688 54.8652 66.9258 55.7988 68.1686 56.7325C67.133 57.1994 67.5472 57.8997 65.4759 58.1331C61.5404 58.8334 51.8053 55.3321 47.6627 54.1649C44.97 53.2313 42.8987 53.2312 39.9988 52.7644C39.5846 50.6636 40.8274 49.4965 41.4487 48.0959L48.2841 35.9579C53.8766 26.3876 52.0124 26.3876 61.7476 31.9898L73.1397 38.9925C74.1754 39.6927 75.6253 42.0269 73.9683 43.194C71.4827 44.828 59.8834 37.125 55.9479 37.3585Z" fill="#FCFCFC"/>
<path fill-rule="evenodd" clip-rule="evenodd" d="M15.3501 66.3029C18.4571 63.0349 24.2567 59.767 29.8492 58.8333C47.0411 56.0322 58.6404 73.3056 82.8747 57.6662C81.2176 62.5681 76.0394 67.0031 71.4825 68.8705C66.0971 71.2048 58.4333 70.9713 52.6336 69.8042C46.6268 68.6371 41.6557 65.3691 35.6489 64.9023C28.6064 64.4354 22.1854 65.6026 15.3501 66.3029Z" fill="#FCFCFC"/>
<path fill-rule="evenodd" clip-rule="evenodd" d="M32.1274 33.3903C36.2701 34.5574 38.7556 38.9925 37.72 43.4274C36.8914 47.3956 33.1631 50.8968 28.8133 49.7297C19.2853 47.1621 22.8065 30.8227 32.1274 33.3903Z" fill="#FCFCFC"/>
</svg>
