<svg width="98" height="98" viewBox="0 0 98 98" fill="none" xmlns="http://www.w3.org/2000/svg">
<path fill-rule="evenodd" clip-rule="evenodd" d="M49.0449 1C75.6473 1 97.0449 22.3976 97.0449 49C97.0449 75.6024 75.6473 97 49.0449 97C22.4425 97 1.04492 75.6024 1.04492 49C1.04492 22.5904 22.6353 1 49.0449 1Z" fill="#97C3F9" stroke="#93C1F9" stroke-width="0.604135" stroke-miterlimit="22.9256"/>
<path fill-rule="evenodd" clip-rule="evenodd" d="M42.4747 72.2341C41.2208 66.5005 49.7472 65.0048 51.001 70.2398C52.2549 76.2227 43.4778 76.9705 42.4747 72.2341ZM28.6822 66.999C27.6791 61.0161 36.707 60.2683 37.2085 65.7526C37.4593 68.2454 35.9546 69.9905 33.6977 70.2398C31.19 70.7384 28.933 69.2426 28.6822 66.999ZM56.2672 58.0248C61.7842 55.5319 64.7934 64.2569 59.5272 66.0019C54.261 67.7469 51.001 60.5176 56.2672 58.0248ZM28.6822 48.0533C34.1992 45.5604 36.7069 53.2883 32.4438 55.5319C28.933 57.2769 24.9206 54.2854 26.4252 50.0476C26.9268 48.5518 27.6791 48.5519 28.6822 48.0533ZM50.4994 48.3025C54.7626 49.7982 53.7595 55.2826 51.001 55.2826C48.4933 55.0333 46.4871 50.0475 50.4994 48.3025ZM39.7163 38.8297C45.484 35.5889 48.2425 44.314 43.4779 46.3083C41.2209 47.3054 38.9638 46.3083 37.71 44.314C36.7069 42.3197 37.4593 40.3254 39.7163 38.8297ZM58.2733 42.3197C60.2795 35.0904 50.4994 32.8468 43.9793 32.8468C36.7069 32.8468 30.1868 36.8354 26.9268 40.3254C17.899 50.0476 18.4006 65.7526 27.9299 74.4776C37.9608 83.7012 54.7625 81.9562 62.0349 72.4834C64.2919 69.4919 70.812 59.5205 64.2919 56.2797C61.5334 54.784 57.7717 54.5347 56.5179 52.2911C55.0133 49.0504 57.521 45.0618 58.2733 42.3197Z" fill="#FCFCFC"/>
<path fill-rule="evenodd" clip-rule="evenodd" d="M78.3358 36.3366C77.3327 31.1016 73.3204 32.5973 70.5619 31.1015C63.5403 27.3623 32.1937 17.3908 26.6768 17.1415C29.9368 21.6287 60.531 32.0987 69.5588 35.3394C71.3142 35.838 69.8096 35.3394 71.0635 36.3366C72.5681 37.583 73.5711 37.3337 75.8281 36.8352L77.5835 36.3366C78.0851 36.3366 78.3358 36.3366 78.3358 36.3366Z" fill="#FCFCFC"/>
</svg>
