<svg width="229" height="199" viewBox="0 0 229 199" fill="none" xmlns="http://www.w3.org/2000/svg">
<g filter="url(#filter0_d)">
<rect x="20" y="14.9995" width="188.735" height="159" rx="5" fill="#FAFAFA"/>
</g>
<path d="M100.746 57.7722C100.746 82.3642 120.646 102.292 145.204 102.292C152.063 102.292 158.52 100.702 164.321 97.925V44.395H102.8C101.466 48.6138 100.746 53.1082 100.746 57.7722Z" fill="#8CBEBD"/>
<path d="M85.2284 120.27C90.3028 120.27 94.4163 116.151 94.4163 111.069C94.4163 105.988 90.3028 101.868 85.2284 101.868C80.1541 101.868 76.0405 105.988 76.0405 111.069C76.0405 116.151 80.1541 120.27 85.2284 120.27Z" fill="#DBB688"/>
<path d="M103.478 144.035C102.864 134.474 94.9464 126.905 85.2505 126.905C75.5545 126.905 67.6156 134.474 67.0228 144.035H103.478Z" fill="#E6C294"/>
<path d="M141.817 120.27C146.891 120.27 151.005 116.151 151.005 111.069C151.005 105.988 146.891 101.868 141.817 101.868C136.742 101.868 132.629 105.988 132.629 111.069C132.629 116.151 136.742 120.27 141.817 120.27Z" fill="#DBB688"/>
<path d="M160.044 144.035C159.43 134.474 151.513 126.905 141.817 126.905C132.121 126.905 124.182 134.474 123.589 144.035H160.044Z" fill="#E6C294"/>
<path d="M121.006 57.5391V46.5151H75.4689V74.2659H81.9894V84.2299L90.4998 74.2659H98.227" fill="#B37C2D"/>
<path d="M143.785 57.5391V85.2899H137.265V95.2539L128.755 85.2899H98.227V57.5391H143.785Z" fill="#65AA00"/>
<path d="M74.4528 111.069C74.4528 117.026 79.2796 121.86 85.2284 121.86C91.1773 121.86 96.0041 117.026 96.0041 111.069C96.0041 105.112 91.1773 100.278 85.2284 100.278C79.2796 100.278 74.4528 105.133 74.4528 111.069ZM92.8286 111.069C92.8286 115.267 89.4202 118.68 85.2284 118.68C81.0367 118.68 77.6283 115.267 77.6283 111.069C77.6283 106.872 81.0367 103.458 85.2284 103.458C89.4202 103.458 92.8286 106.872 92.8286 111.069Z" fill="#505050"/>
<path d="M85.2285 125.294C74.7915 125.294 66.0693 133.477 65.4131 143.929C65.3919 144.374 65.5401 144.798 65.8365 145.116C66.1329 145.434 66.5563 145.625 67.0008 145.625H103.477C103.922 145.625 104.345 145.434 104.642 145.116C104.938 144.798 105.086 144.374 105.065 143.929C104.388 133.477 95.6654 125.294 85.2285 125.294ZM68.7791 142.424C70.1129 134.474 77.0356 128.474 85.2285 128.474C93.4214 128.474 100.365 134.474 101.678 142.424H68.7791Z" fill="#505050"/>
<path d="M131.041 111.069C131.041 117.026 135.868 121.86 141.817 121.86C147.765 121.86 152.592 117.026 152.592 111.069C152.592 105.112 147.765 100.278 141.817 100.278C135.868 100.278 131.041 105.133 131.041 111.069ZM149.417 111.069C149.417 115.267 146.008 118.68 141.817 118.68C137.625 118.68 134.216 115.267 134.216 111.069C134.216 106.872 137.625 103.458 141.817 103.458C146.008 103.458 149.417 106.872 149.417 111.069Z" fill="#505050"/>
<path d="M141.817 125.294C131.38 125.294 122.658 133.477 122.001 143.929C121.98 144.374 122.128 144.798 122.425 145.116C122.721 145.434 123.144 145.625 123.589 145.625H160.065C160.51 145.625 160.933 145.434 161.23 145.116C161.526 144.798 161.674 144.374 161.653 143.929C160.955 133.477 152.254 125.294 141.817 125.294ZM125.346 142.424C126.68 134.474 133.603 128.474 141.795 128.474C150.01 128.474 156.932 134.474 158.245 142.424H125.346Z" fill="#505050"/>
<path d="M98.2482 66.6763C99.1251 66.6763 99.8359 65.9645 99.8359 65.0863C99.8359 64.2082 99.1251 63.4963 98.2482 63.4963C97.3713 63.4963 96.6604 64.2082 96.6604 65.0863C96.6604 65.9645 97.3713 66.6763 98.2482 66.6763Z" fill="#505050"/>
<path d="M75.4689 75.8558H80.4016V84.2298C80.4016 84.887 80.825 85.4806 81.439 85.7138C81.6083 85.7774 81.7989 85.8198 81.9894 85.8198C82.434 85.8198 82.8785 85.629 83.1961 85.2686L91.2408 75.8558H96.6604V85.311C96.6604 85.735 96.8298 86.1378 97.1262 86.4346C97.4225 86.7314 97.8248 86.901 98.2482 86.901H128.035L136.058 96.3138C136.376 96.6742 136.799 96.865 137.265 96.865C137.456 96.865 137.646 96.8438 137.815 96.759C138.451 96.547 138.853 95.9322 138.853 95.275V86.901H143.785C144.209 86.901 144.611 86.7314 144.908 86.4346C145.204 86.1378 145.373 85.735 145.373 85.311V57.539C145.373 57.115 145.204 56.7122 144.908 56.4154C144.611 56.1186 144.209 55.949 143.785 55.949H122.615V46.4938C122.615 45.6246 121.895 44.9038 121.027 44.9038H75.4689C74.601 44.9038 73.8812 45.6246 73.8812 46.4938V74.2446C73.8812 75.135 74.601 75.8558 75.4689 75.8558ZM77.0567 48.0838H119.418V55.949H98.2482C97.8248 55.949 97.4225 56.1186 97.1262 56.4154C96.8298 56.691 96.6604 57.115 96.6604 57.539V60.8462C96.6604 61.7366 97.359 62.4362 98.2482 62.4362C99.1162 62.4362 99.8359 61.7366 99.8359 60.8462V59.129H142.198V83.6998H137.265C136.863 83.6998 136.439 83.8694 136.143 84.1662C135.847 84.463 135.677 84.8658 135.677 85.2898V90.9502L129.961 84.251C129.665 83.8906 129.22 83.6998 128.755 83.6998H99.8359V69.3262C99.8359 68.457 99.1162 67.7362 98.2482 67.7362C97.359 67.7362 96.6604 68.457 96.6604 69.3262V72.6546H90.4998C90.0341 72.6546 89.5895 72.8666 89.2931 73.2058L83.5772 79.905V74.2446C83.5772 73.3754 82.8574 72.6546 81.9894 72.6546H77.0567V48.0838Z" fill="#505050"/>
<path d="M106.124 66.9517H135.889C136.757 66.9517 137.477 66.2309 137.477 65.3617C137.477 64.4925 136.757 63.7717 135.889 63.7717H106.124C105.256 63.7717 104.536 64.4925 104.536 65.3617C104.536 66.2309 105.234 66.9517 106.124 66.9517Z" fill="#505050"/>
<path d="M106.124 73.5025H135.889C136.757 73.5025 137.477 72.7817 137.477 71.9125C137.477 71.0433 136.757 70.3225 135.889 70.3225H106.124C105.256 70.3225 104.536 71.0433 104.536 71.9125C104.536 72.7817 105.234 73.5025 106.124 73.5025Z" fill="#505050"/>
<path d="M106.124 80.0748H124.542C125.41 80.0748 126.129 79.354 126.129 78.4848C126.129 77.6156 125.41 76.8948 124.542 76.8948H106.124C105.256 76.8948 104.536 77.6156 104.536 78.4848C104.536 79.354 105.234 80.0748 106.124 80.0748Z" fill="#505050"/>
<defs>
<filter id="filter0_d" x="0" y="-0.000488281" width="228.735" height="199" filterUnits="userSpaceOnUse" color-interpolation-filters="sRGB">
<feFlood flood-opacity="0" result="BackgroundImageFix"/>
<feColorMatrix in="SourceAlpha" type="matrix" values="0 0 0 0 0 0 0 0 0 0 0 0 0 0 0 0 0 0 127 0"/>
<feOffset dy="5"/>
<feGaussianBlur stdDeviation="10"/>
<feColorMatrix type="matrix" values="0 0 0 0 0 0 0 0 0 0 0 0 0 0 0 0 0 0 0.3 0"/>
<feBlend mode="normal" in2="BackgroundImageFix" result="effect1_dropShadow"/>
<feBlend mode="normal" in="SourceGraphic" in2="effect1_dropShadow" result="shape"/>
</filter>
</defs>
</svg>
