<svg width="230" height="199" viewBox="0 0 230 199" fill="none" xmlns="http://www.w3.org/2000/svg">
<g filter="url(#filter0_d)">
<rect x="20.6324" y="15" width="188.735" height="159" rx="5" fill="#53998A"/>
</g>
<path d="M108.715 98.4946C84.1577 98.4946 64.2576 118.423 64.2576 143.015H153.173C153.173 118.444 133.273 98.4946 108.715 98.4946Z" fill="#B37C2D"/>
<path d="M163.23 46.5544H65.8462V59.2744H163.23V46.5544Z" fill="#E9F4BC"/>
<path d="M156.751 59.2744H72.3235V122.768H156.751V59.2744Z" fill="#FCFCFC"/>
<path d="M98.9346 67.3511V82.1911H113.754C113.754 73.9867 107.106 67.3511 98.9346 67.3511Z" fill="#65AA00"/>
<path d="M93.896 72.3757C85.7031 72.3757 79.0768 79.0113 79.0768 87.2157C79.0768 91.3073 80.7281 95.0173 83.4168 97.7097L93.896 87.2157V72.3757Z" fill="#FDE4A1"/>
<path d="M93.896 87.2156L83.4167 97.7096C86.1054 100.402 89.8102 102.056 93.896 102.056C102.089 102.056 108.715 95.42 108.715 87.2156H93.896Z" fill="#65AA00"/>
<path d="M150.421 75.7046H143.667V116.409H150.421V75.7046Z" fill="#8CBEBD"/>
<path d="M136.872 90.5444H130.118V116.408H136.872V90.5444Z" fill="#8CBEBD"/>
<path d="M123.344 105.385H116.591V116.409H123.344V105.385Z" fill="#8CBEBD"/>
<path d="M80.6646 60.8434C81.5538 60.8434 82.2524 60.1438 82.2524 59.2746C82.2524 58.3842 81.5538 57.6846 80.6646 57.6846C79.7966 57.6846 79.0768 58.3842 79.0768 59.2746C79.0768 60.165 79.7966 60.8434 80.6646 60.8434Z" fill="#505050"/>
<path d="M164.351 45.4306C164.054 45.1338 163.652 44.9854 163.229 44.9854H65.8454C65.422 44.9854 65.0198 45.155 64.7234 45.4518C64.427 45.7274 64.2576 46.1514 64.2576 46.533V59.2741C64.2576 59.677 64.427 60.1009 64.7234 60.3977C65.0198 60.6945 65.422 60.8429 65.8454 60.8429H70.7357V122.747C70.7357 123.616 71.4555 124.337 72.3235 124.337H112.949V128.937C110.515 129.637 108.715 131.863 108.715 134.513C108.715 137.735 111.319 140.343 114.537 140.343C117.755 140.343 120.359 137.735 120.359 134.513C120.359 131.863 118.559 129.637 116.125 128.937V124.337H156.751C157.619 124.337 158.338 123.616 158.338 122.747V60.8429H163.229C163.652 60.8429 164.054 60.6946 164.351 60.3766C164.647 60.101 164.817 59.6982 164.817 59.2741V46.533C164.817 46.1302 164.647 45.7274 164.351 45.4306ZM117.183 134.534C117.183 135.997 115.998 137.184 114.537 137.184C113.076 137.184 111.891 135.997 111.891 134.534C111.891 133.071 113.076 131.884 114.537 131.884C115.998 131.884 117.183 133.071 117.183 134.534ZM161.641 57.7054H84.8987C84.0307 57.7054 83.3109 58.405 83.3109 59.2954C83.3109 60.1646 84.0307 60.8642 84.8987 60.8642H155.184V121.178H114.558H73.9113V60.8429H76.4305C77.3197 60.8429 78.0183 60.1434 78.0183 59.2741C78.0183 58.3837 77.3197 57.6842 76.4305 57.6842H67.4332V48.123H161.641V57.7054Z" fill="#505050"/>
<path d="M93.8961 103.646C102.936 103.646 110.303 96.268 110.303 87.2156C110.303 86.3464 109.583 85.6256 108.715 85.6256H95.4838V72.3756C95.4838 71.5064 94.764 70.7856 93.8961 70.7856C84.8563 70.7856 77.4891 78.1632 77.4891 87.2156C77.4891 96.268 84.8352 103.646 93.8961 103.646ZM107.022 88.8056C106.238 95.3564 100.649 100.466 93.8749 100.466C90.8052 100.466 87.9684 99.4056 85.7243 97.6248L94.5312 88.8056H107.022ZM92.3083 74.0716V86.5584L83.5014 95.3776C81.7231 93.1304 80.6646 90.3108 80.6646 87.2156C80.6646 80.4528 85.7455 74.856 92.3083 74.0716Z" fill="#505050"/>
<path d="M98.9346 83.781H113.754C114.622 83.781 115.342 83.0602 115.342 82.191C115.342 73.1386 107.974 65.761 98.9346 65.761C98.0666 65.761 97.3468 66.4818 97.3468 67.351V82.191C97.3468 83.0602 98.0454 83.781 98.9346 83.781ZM100.522 69.0258C106.556 69.7466 111.34 74.559 112.081 80.601H100.522V69.0258Z" fill="#505050"/>
<path d="M143.667 117.999H150.421C151.289 117.999 152.008 117.278 152.008 116.409V75.7045C152.008 74.8353 151.289 74.1145 150.421 74.1145H143.667C142.799 74.1145 142.08 74.8353 142.08 75.7045V116.409C142.08 117.278 142.778 117.999 143.667 117.999ZM145.255 77.2945H148.833V114.819H145.255V77.2945Z" fill="#505050"/>
<path d="M130.118 117.999H136.872C137.74 117.999 138.459 117.278 138.459 116.409V90.5446C138.459 89.6754 137.74 88.9546 136.872 88.9546H130.118C129.25 88.9546 128.531 89.6754 128.531 90.5446V116.409C128.531 117.278 129.25 117.999 130.118 117.999ZM131.706 92.1346H135.284V114.819H131.706V92.1346Z" fill="#505050"/>
<path d="M115.003 116.408C115.003 117.278 115.723 117.998 116.591 117.998H123.344C124.212 117.998 124.932 117.278 124.932 116.408V105.384C124.932 104.515 124.212 103.794 123.344 103.794H116.591C115.723 103.794 115.003 104.515 115.003 105.384V116.408ZM118.178 106.974H121.756V114.818H118.178V106.974Z" fill="#505050"/>
<defs>
<filter id="filter0_d" x="0.632385" y="0" width="228.735" height="199" filterUnits="userSpaceOnUse" color-interpolation-filters="sRGB">
<feFlood flood-opacity="0" result="BackgroundImageFix"/>
<feColorMatrix in="SourceAlpha" type="matrix" values="0 0 0 0 0 0 0 0 0 0 0 0 0 0 0 0 0 0 127 0"/>
<feOffset dy="5"/>
<feGaussianBlur stdDeviation="10"/>
<feColorMatrix type="matrix" values="0 0 0 0 0 0 0 0 0 0 0 0 0 0 0 0 0 0 0.3 0"/>
<feBlend mode="normal" in2="BackgroundImageFix" result="effect1_dropShadow"/>
<feBlend mode="normal" in="SourceGraphic" in2="effect1_dropShadow" result="shape"/>
</filter>
</defs>
</svg>
