<svg width="229" height="199" viewBox="0 0 229 199" fill="none" xmlns="http://www.w3.org/2000/svg">
<g filter="url(#filter0_d)">
<rect x="20.2648" y="14.9995" width="188.735" height="159" rx="5" fill="#FAFAFA"/>
</g>
<path d="M161.692 81.0352C157.373 79.636 152.758 78.8516 147.973 78.8516C123.416 78.8516 103.516 98.7796 103.516 123.372C103.516 129.88 104.934 136.049 107.454 141.625H161.692V81.0352Z" fill="#65AA00"/>
<path d="M152.885 41.9851H68.8601V97.8047H152.885V41.9851Z" fill="white"/>
<path d="M76.164 121.273C80.0574 121.273 83.2137 118.112 83.2137 114.213C83.2137 110.315 80.0574 107.154 76.164 107.154C72.2705 107.154 69.1143 110.315 69.1143 114.213C69.1143 118.112 72.2705 121.273 76.164 121.273Z" fill="#FDE4A1"/>
<path d="M90.1583 139.484C89.6925 132.149 83.6167 126.34 76.1647 126.34C68.7128 126.34 62.6369 132.149 62.1711 139.484H90.1583Z" fill="#DBB688"/>
<path d="M110.862 121.273C114.755 121.273 117.912 118.112 117.912 114.213C117.912 110.315 114.755 107.154 110.862 107.154C106.969 107.154 103.812 110.315 103.812 114.213C103.812 118.112 106.969 121.273 110.862 121.273Z" fill="#FDE4A1"/>
<path d="M124.856 139.484C124.39 132.149 118.314 126.34 110.862 126.34C103.41 126.34 97.3342 132.149 96.8684 139.484H124.856Z" fill="#DBB688"/>
<path d="M145.581 121.273C149.475 121.273 152.631 118.112 152.631 114.213C152.631 110.315 149.475 107.154 145.581 107.154C141.688 107.154 138.532 110.315 138.532 114.213C138.532 118.112 141.688 121.273 145.581 121.273Z" fill="#FDE4A1"/>
<path d="M159.575 139.484C159.109 132.149 153.033 126.34 145.581 126.34C138.129 126.34 132.053 132.149 131.588 139.484H159.575Z" fill="#DBB688"/>
<path d="M68.8601 99.3946H152.885C153.753 99.3946 154.473 98.6738 154.473 97.8046V41.985C154.473 41.1158 153.753 40.395 152.885 40.395H68.8601C67.9921 40.395 67.2723 41.1158 67.2723 41.985V97.8046C67.2723 98.6738 67.971 99.3946 68.8601 99.3946ZM70.4479 43.575H151.297V96.2146H70.4479V43.575Z" fill="#505050"/>
<path d="M142.766 56.9995H79.5086C77.6924 56.9995 76.1863 57.6795 76.1863 58.4995C76.1863 59.3195 77.6924 59.9995 79.5086 59.9995H142.766C144.582 59.9995 146.088 59.3195 146.088 58.4995C146.088 57.6795 144.582 56.9995 142.766 56.9995Z" fill="#505050"/>
<path d="M143.43 64.9995H92.8245C91.3715 64.9995 90.1666 65.6795 90.1666 66.4995C90.1666 67.3195 91.3715 67.9995 92.8245 67.9995H143.43C144.883 67.9995 146.088 67.3195 146.088 66.4995C146.088 65.6795 144.883 64.9995 143.43 64.9995Z" fill="#505050"/>
<path d="M127.608 72.9995H105.651C104.283 72.9995 103.148 73.6795 103.148 74.4995C103.148 75.3195 104.283 75.9995 105.651 75.9995H127.608C128.976 75.9995 130.111 75.3195 130.111 74.4995C130.111 73.6795 128.976 72.9995 127.608 72.9995Z" fill="#505050"/>
<path d="M67.5264 114.213C67.5264 118.983 71.4005 122.863 76.1638 122.863C80.9272 122.863 84.8013 118.983 84.8013 114.213C84.8013 109.443 80.9272 105.564 76.1638 105.564C71.4005 105.564 67.5264 109.443 67.5264 114.213ZM81.6258 114.213C81.6258 117.224 79.17 119.683 76.1638 119.683C73.1577 119.683 70.7019 117.224 70.7019 114.213C70.7019 111.203 73.1577 108.744 76.1638 108.744C79.17 108.744 81.6258 111.203 81.6258 114.213Z" fill="#505050"/>
<path d="M76.1639 124.75C67.9498 124.75 61.1118 131.173 60.5826 139.378C60.5614 139.823 60.7096 140.247 61.006 140.565C61.3023 140.883 61.7258 141.074 62.1703 141.074H90.1363C90.5809 141.074 91.0043 140.883 91.3007 140.565C91.597 140.247 91.7452 139.823 91.7241 139.378C91.216 131.173 84.378 124.75 76.1639 124.75ZM63.991 137.894C65.1553 132.191 70.215 127.93 76.1639 127.93C82.1127 127.93 87.1724 132.191 88.3368 137.894H63.991Z" fill="#505050"/>
<path d="M102.246 114.213C102.246 118.983 106.12 122.863 110.883 122.863C115.647 122.863 119.521 118.983 119.521 114.213C119.521 109.443 115.647 105.564 110.883 105.564C106.12 105.564 102.246 109.443 102.246 114.213ZM116.324 114.213C116.324 117.224 113.868 119.683 110.862 119.683C107.856 119.683 105.4 117.224 105.4 114.213C105.4 111.203 107.856 108.744 110.862 108.744C113.868 108.744 116.324 111.203 116.324 114.213Z" fill="#505050"/>
<path d="M110.883 124.75C102.669 124.75 95.8312 131.173 95.3019 139.378C95.2807 139.823 95.4289 140.247 95.7253 140.565C96.0217 140.883 96.4451 141.074 96.8897 141.074H124.856C125.3 141.074 125.724 140.883 126.02 140.565C126.316 140.247 126.465 139.823 126.443 139.378C125.914 131.173 119.076 124.75 110.883 124.75ZM98.6892 137.894C99.8535 132.191 104.913 127.93 110.862 127.93C116.811 127.93 121.871 132.191 123.035 137.894H98.6892Z" fill="#505050"/>
<path d="M145.581 105.564C140.818 105.564 136.944 109.443 136.944 114.213C136.944 118.983 140.818 122.863 145.581 122.863C150.345 122.863 154.219 118.983 154.219 114.213C154.219 109.443 150.345 105.564 145.581 105.564ZM145.581 119.683C142.575 119.683 140.119 117.224 140.119 114.213C140.119 111.203 142.575 108.744 145.581 108.744C148.587 108.744 151.043 111.203 151.043 114.213C151.043 117.224 148.587 119.683 145.581 119.683Z" fill="#505050"/>
<path d="M145.581 124.75C137.367 124.75 130.529 131.173 130 139.378C129.979 139.823 130.127 140.247 130.423 140.565C130.72 140.883 131.143 141.074 131.588 141.074H159.554C159.998 141.074 160.422 140.883 160.718 140.565C161.014 140.247 161.163 139.823 161.141 139.378C160.633 131.173 153.774 124.75 145.581 124.75ZM133.408 137.894C134.573 132.191 139.632 127.93 145.581 127.93C151.53 127.93 156.59 132.191 157.754 137.894H133.408Z" fill="#505050"/>
<defs>
<filter id="filter0_d" x="0.264771" y="-0.000488281" width="228.735" height="199" filterUnits="userSpaceOnUse" color-interpolation-filters="sRGB">
<feFlood flood-opacity="0" result="BackgroundImageFix"/>
<feColorMatrix in="SourceAlpha" type="matrix" values="0 0 0 0 0 0 0 0 0 0 0 0 0 0 0 0 0 0 127 0"/>
<feOffset dy="5"/>
<feGaussianBlur stdDeviation="10"/>
<feColorMatrix type="matrix" values="0 0 0 0 0 0 0 0 0 0 0 0 0 0 0 0 0 0 0.3 0"/>
<feBlend mode="normal" in2="BackgroundImageFix" result="effect1_dropShadow"/>
<feBlend mode="normal" in="SourceGraphic" in2="effect1_dropShadow" result="shape"/>
</filter>
</defs>
</svg>
