<svg width="1920" height="807" viewBox="0 0 1920 807" fill="none" xmlns="http://www.w3.org/2000/svg">
<g opacity="0.3">
<path fill-rule="evenodd" clip-rule="evenodd" d="M1099.45 78.7012C1126.43 78.7012 1148.39 100.391 1148.39 127.038C1148.39 153.685 1126.43 175.374 1099.45 175.374C1072.47 175.374 1050.51 153.685 1050.51 127.038C1050.51 100.391 1072.47 78.7012 1099.45 78.7012Z" fill="white" stroke="#2C8AFF" stroke-width="0.7087" stroke-miterlimit="22.9256"/>
<path fill-rule="evenodd" clip-rule="evenodd" d="M1089.73 116.813C1092.24 116.503 1098.51 112.165 1100.39 110.926C1100.71 114.024 1097.88 128.277 1096.63 131.686L1089.73 116.813ZM1088.16 113.405C1086.9 112.165 1083.45 103.799 1081.57 101.63C1079.69 101.63 1072.47 103.18 1073.41 109.067C1074.04 112.475 1078.75 115.574 1080.31 118.982C1084.71 128.277 1079.37 140.361 1083.45 148.108H1089.73C1091.29 145.319 1092.55 141.911 1094.12 138.812C1098.82 129.517 1102.27 114.644 1101.33 104.419C1098.82 106.278 1089.41 112.165 1088.16 113.405Z" fill="#93C1F9"/>
<path fill-rule="evenodd" clip-rule="evenodd" d="M1104.16 111.546L1104.78 105.659L1108.24 108.137C1106.67 109.377 1105.73 110.616 1104.16 111.546ZM1112 104.419C1110.75 103.799 1104.47 100.701 1103.84 100.391C1104.47 105.349 1104.16 105.039 1103.53 109.996C1102.27 120.531 1102.59 132.306 1104.78 142.84C1106.35 151.516 1109.8 151.206 1114.2 151.206C1117.02 151.206 1117.33 151.206 1118.27 149.347C1121.1 144.39 1122.35 136.024 1122.04 129.207C1120.47 131.996 1118.27 137.263 1114.82 137.883C1109.49 138.812 1102.27 130.446 1103.53 120.841C1103.84 117.743 1110.43 113.715 1112.63 109.377L1120.47 112.475L1119.84 107.518L1116.39 105.968C1119.53 101.321 1119.53 103.49 1117.33 97.9124C1115.45 100.081 1115.76 101.321 1112.63 104.109L1112 104.419Z" fill="#93C1F9"/>
<path fill-rule="evenodd" clip-rule="evenodd" d="M1099.14 95.4333L1099.45 98.222L1096 96.6728L1099.14 95.4333ZM1083.14 92.6446L1084.08 95.7432C1087.22 95.1235 1096 93.2644 1099.14 95.1235L1094.75 95.7432C1094.12 96.3629 1093.18 95.1234 1090.04 95.4333C1089.1 95.4333 1086.9 95.7432 1085.96 96.053C1083.76 96.6727 1084.08 96.3628 1084.08 98.5318C1085.65 99.1515 1090.04 99.4614 1092.55 100.391C1095.37 101.32 1097.88 102.56 1100.71 103.489C1100.39 98.5318 1099.45 95.1235 1099.45 90.1659C1094.43 89.5462 1086.27 89.5461 1083.14 92.6446Z" fill="#93C1F9"/>
<path fill-rule="evenodd" clip-rule="evenodd" d="M1101.96 93.5745L1103.53 98.8419C1106.67 99.4616 1112.94 97.9124 1115.45 96.3632L1115.14 94.504C1113.88 94.1942 1107.61 95.4335 1104.78 95.4335C1106.67 94.504 1107.92 95.1238 1110.12 94.8139C1112 94.5041 1113.25 93.8844 1115.14 93.5745C1115.14 92.0253 1115.14 90.1662 1114.2 88.6169C1110.12 89.8563 1106.67 92.645 1101.96 93.5745Z" fill="#93C1F9"/>
<path fill-rule="evenodd" clip-rule="evenodd" d="M1695.22 481.814C1726.9 481.814 1752.63 507.222 1752.63 538.517C1752.63 569.811 1726.9 595.219 1695.22 595.219C1663.53 595.219 1637.8 569.811 1637.8 538.517C1637.8 507.222 1663.53 481.814 1695.22 481.814Z" fill="white" stroke="#2C8AFF" stroke-width="0.7087" stroke-miterlimit="22.9256"/>
<path fill-rule="evenodd" clip-rule="evenodd" d="M1689.57 568.262C1688 561.136 1698.67 559.277 1700.24 565.784C1701.8 573.22 1690.82 574.15 1689.57 568.262ZM1672.31 561.756C1671.06 554.319 1682.35 553.39 1682.98 560.206C1683.29 563.305 1681.41 565.474 1678.59 565.784C1675.45 566.403 1672.63 564.544 1672.31 561.756ZM1706.82 550.601C1713.73 547.503 1717.49 558.347 1710.9 560.516C1704.31 562.685 1700.24 553.7 1706.82 550.601ZM1672.31 538.207C1679.22 535.109 1682.35 544.714 1677.02 547.503C1672.63 549.672 1667.61 545.953 1669.49 540.686C1670.12 538.827 1671.06 538.827 1672.31 538.207ZM1699.61 538.517C1704.94 540.376 1703.69 547.193 1700.24 547.193C1697.1 546.883 1694.59 540.686 1699.61 538.517ZM1686.12 526.743C1693.33 522.715 1696.78 533.559 1690.82 536.038C1688 537.278 1685.18 536.038 1683.61 533.559C1682.35 531.081 1683.29 528.602 1686.12 526.743ZM1709.33 531.081C1711.84 522.095 1699.61 519.306 1691.45 519.306C1682.35 519.306 1674.2 524.264 1670.12 528.602C1658.82 540.686 1659.45 560.206 1671.37 571.051C1683.92 582.515 1704.94 580.347 1714.04 568.572C1716.86 564.854 1725.02 552.46 1716.86 548.432C1713.41 546.573 1708.71 546.263 1707.14 543.475C1705.25 539.447 1708.39 534.489 1709.33 531.081Z" fill="#93C1F9"/>
<path fill-rule="evenodd" clip-rule="evenodd" d="M1734.43 523.644C1733.18 517.137 1728.16 518.996 1724.71 517.137C1715.92 512.489 1676.71 500.095 1669.8 499.786C1673.88 505.363 1712.16 518.377 1723.45 522.405C1725.65 523.024 1723.76 522.405 1725.33 523.644C1727.22 525.193 1728.47 524.883 1731.29 524.264L1733.49 523.644C1734.12 523.644 1734.43 523.644 1734.43 523.644Z" fill="#93C1F9"/>
<path fill-rule="evenodd" clip-rule="evenodd" d="M736.784 368.72C788.549 368.72 830.274 410.239 830.274 461.055C830.274 511.87 788.235 553.389 736.784 553.389C685.02 553.389 643.294 511.87 643.294 461.055C643.294 410.239 685.02 368.72 736.784 368.72Z" fill="white" stroke="#2C8AFF" stroke-width="0.7087" stroke-miterlimit="22.9256"/>
<path fill-rule="evenodd" clip-rule="evenodd" d="M130.667 113.714C161.725 113.714 186.824 138.502 186.824 169.177C186.824 199.852 161.725 224.64 130.667 224.64C99.6079 224.64 74.5098 199.852 74.5098 169.177C74.5098 138.502 99.6079 113.714 130.667 113.714Z" fill="white" stroke="#2C8AFF" stroke-width="0.7087" stroke-miterlimit="22.9256"/>
<path fill-rule="evenodd" clip-rule="evenodd" d="M123.451 162.67C124.078 160.501 127.216 158.952 125.647 157.093C123.765 155.234 113.726 158.952 112.471 159.262C110.275 159.882 107.765 159.572 105.882 160.192C105.255 162.67 105.569 161.741 106.196 163.29C106.824 165.459 105.569 164.529 106.51 165.769C107.765 167.008 108.078 166.079 109.961 166.698C110.902 167.008 111.843 167.938 112.471 168.248C111.216 171.346 105.882 178.163 106.196 182.191L109.02 183.43C109.02 184.67 108.706 185.909 108.392 186.839C108.078 188.388 107.451 188.698 107.137 189.627C106.51 191.176 106.824 195.204 107.137 196.754C127.216 196.444 125.961 198.613 125.961 193.345C125.961 186.529 125.02 190.247 124.392 186.219C124.078 184.98 124.078 183.74 124.078 182.191L126.902 181.571C126.588 178.163 124.392 175.994 124.706 171.346C124.706 167.318 127.529 164.529 123.451 162.67ZM152 147.178C150.118 147.178 147.608 147.798 146.039 146.558C146.667 145.009 149.177 145.319 147.608 143.46C146.98 142.84 147.608 143.46 146.667 142.84C144.471 140.671 147.608 141.911 144.784 140.981C142.588 141.601 144.471 140.981 143.216 142.22C142.275 143.15 142.275 142.53 141.647 143.46C140.078 146.248 142.588 143.77 143.529 146.248C143.529 146.248 143.216 146.248 143.216 146.558C143.216 146.558 142.902 146.558 142.902 146.868C139.765 147.798 145.098 146.558 141.961 147.178C136.941 148.107 136 144.389 139.137 154.614C141.333 161.431 140.078 158.642 139.451 161.121C140.078 161.741 141.02 162.051 141.647 162.67C141.961 168.867 141.333 173.205 139.137 178.163C138.196 180.332 136.941 182.191 136 184.36C135.373 185.599 135.373 186.529 135.059 187.768C134.431 191.176 133.804 189.317 133.49 190.867C133.804 194.585 134.431 190.557 134.118 194.275C134.118 195.205 133.49 195.824 133.804 197.373H155.765C156.392 194.275 154.824 195.514 155.765 192.726C156.706 189.937 156.078 190.867 154.51 189.627C154.51 182.191 146.353 177.233 147.608 162.67C148.549 162.051 148.863 161.741 149.804 161.121C149.49 159.572 148.549 159.882 148.863 158.023C149.49 155.234 152 149.657 152 147.178Z" fill="#93C1F9"/>
<path fill-rule="evenodd" clip-rule="evenodd" d="M713.882 427.591C712.941 436.577 717.961 471.589 718.274 484.913C712.627 487.082 701.961 487.392 696 499.786C691.608 509.391 700.392 518.377 714.823 509.701C728 501.955 726.431 493.589 725.49 483.674C724.235 472.519 722.98 460.435 722.353 448.971C729.569 446.802 763.451 434.098 767.843 434.408L770.667 467.871C746.824 468.491 737.725 499.476 760 495.138C767.216 493.589 774.745 487.082 777.569 481.505C780.392 475.617 775.059 434.098 774.431 424.802C772.549 404.972 778.824 405.592 737.412 419.535C731.451 421.394 717.961 425.422 713.882 427.591Z" fill="#93C1F9"/>
</g>
</svg>
