<svg width="25" height="21" viewBox="0 0 25 21" fill="none" xmlns="http://www.w3.org/2000/svg">
<path d="M24.0521 15.6726L18.4447 11.702C17.8943 11.312 17.0655 11.3601 16.5733 11.8106L13.4401 14.676C12.6605 14.5776 11.0882 14.2228 9.44011 12.9405C7.79187 11.6536 7.26376 10.3666 7.09897 9.72938L10.3234 6.93631C10.8323 6.49756 10.8342 5.8067 10.331 5.37363L5.20847 0.974009C4.70517 0.539823 3.87299 0.523984 3.33231 0.936808L0.477721 3.11925C0.251071 3.32201 0.120704 3.58456 0.110721 3.86007C0.0995718 4.14125 -0.0711802 10.7986 6.27833 15.754C11.8175 20.0739 18.5849 20.1847 20.4458 20.1247C20.7178 20.1159 20.8845 20.1038 20.9289 20.1001C21.2583 20.0737 21.5643 19.9482 21.7909 19.7454L24.2169 17.2286C24.6787 16.7521 24.6039 16.0625 24.0521 15.6726Z" fill="#62A9FF"/>
</svg>
