<svg width="56" height="56" viewBox="0 0 56 56" fill="none" xmlns="http://www.w3.org/2000/svg">
<path d="M9.33342 49.0003H31.7801C34.5077 49.0003 37.0907 47.8127 38.8664 45.7407L50.7711 31.8527C51.2774 31.2623 51.4571 30.4597 51.2494 29.7107C51.0418 28.9617 50.4748 28.3667 49.7397 28.1193L45.1478 26.5887C42.9288 25.849 40.3831 26.304 38.5607 27.7623L31.1291 33.7053L29.6894 30.8237C28.0981 27.6433 24.8991 25.667 21.3407 25.667H9.33342C6.75975 25.667 4.66675 27.76 4.66675 30.3337V44.3337C4.66675 46.9073 6.75975 49.0003 9.33342 49.0003ZM9.33342 30.3337H21.3407C23.1211 30.3337 24.7194 31.3207 25.5151 32.912L26.5581 35.0003H23.3334H18.6667H16.3334V39.667H18.6667H23.3334H30.3334C30.3358 39.667 30.3381 39.667 30.3381 39.667C30.3404 39.667 30.3404 39.667 30.3404 39.667C30.3428 39.667 30.3428 39.667 30.3451 39.667C30.3451 39.667 30.3497 39.667 30.3591 39.667C30.3614 39.667 30.3637 39.667 30.3637 39.667C30.3661 39.667 30.3661 39.667 30.3661 39.667C30.7301 39.6623 31.0848 39.5713 31.3974 39.4103C31.3997 39.4103 31.4021 39.4103 31.4044 39.408C31.4067 39.4057 31.4114 39.4057 31.4137 39.4033H31.4161H31.4184C31.4207 39.4033 31.4207 39.4033 31.4207 39.4033C31.4231 39.4033 31.4231 39.4033 31.4254 39.401H31.4277H31.4301C31.4324 39.401 31.4324 39.401 31.4324 39.401C31.4347 39.401 31.4347 39.401 31.4347 39.401C31.4371 39.401 31.4371 39.401 31.4371 39.3987C31.4581 39.4057 31.4441 39.3963 31.4441 39.3963C31.4674 39.3963 31.4487 39.394 31.4487 39.394C31.4511 39.394 31.4511 39.394 31.4511 39.394C31.4557 39.394 31.4557 39.394 31.4557 39.3917C31.4581 39.3917 31.4604 39.3893 31.4627 39.3893C31.4651 39.3893 31.4651 39.3893 31.4674 39.387C31.4674 39.387 31.4697 39.3847 31.4721 39.3847C31.4744 39.3847 31.4767 39.3823 31.4791 39.3823C31.4814 39.3823 31.4814 39.3823 31.4837 39.38C31.4907 39.38 31.4861 39.3777 31.4884 39.3777C31.4907 39.3777 31.4931 39.3753 31.4954 39.373C31.4977 39.3707 31.4977 39.373 31.5001 39.3707C31.5024 39.3683 31.5024 39.3683 31.5047 39.3683C31.5094 39.366 31.5117 39.366 31.5117 39.366C31.5141 39.366 31.5141 39.366 31.5164 39.3637C31.5164 39.3637 31.5164 39.3637 31.5188 39.3637C31.5211 39.3637 31.5234 39.3613 31.5234 39.3613C31.5258 39.3613 31.5257 39.3613 31.5257 39.3613C31.5281 39.3613 31.5281 39.3613 31.5304 39.359C31.5327 39.359 31.5328 39.359 31.5351 39.3567C31.5561 39.3543 31.5421 39.3543 31.5421 39.3543C31.5421 39.352 31.5468 39.352 31.5468 39.352C31.6354 39.2983 31.7218 39.2377 31.8034 39.17L41.4774 31.4303C42.0887 30.945 42.9311 30.7933 43.6707 31.0407L44.9704 31.4747L35.3268 42.7283C34.4378 43.7387 33.1451 44.3337 31.7801 44.3337H9.33342V30.3337ZM37.3334 4.66699C37.3264 4.66699 37.3054 4.66699 37.2938 4.66699C36.9134 4.67166 34.9464 4.75799 32.6667 6.31199C30.4478 4.79999 28.5274 4.67866 28.0747 4.66933C28.0537 4.66933 28.0187 4.66699 28.0047 4.66699C28.0024 4.66699 28.0024 4.66699 28.0001 4.66699C27.9977 4.66699 27.9954 4.66699 27.9954 4.66699C26.1264 4.66699 24.3671 5.39733 23.0511 6.71566C21.7304 8.03866 21.0001 9.79566 21.0001 11.667C21.0001 13.5383 21.7304 15.2953 23.0091 16.5763L30.9751 24.9437C31.4184 25.4057 32.0298 25.667 32.6667 25.667C33.3037 25.667 33.9151 25.4057 34.3584 24.9413L42.2824 16.616C43.6054 15.2953 44.3334 13.5383 44.3334 11.667C44.3334 9.79566 43.6031 8.03866 42.2848 6.71799C40.9664 5.39733 39.2071 4.66699 37.3381 4.66699C37.3381 4.66699 37.3358 4.66699 37.3334 4.66699ZM39.6668 11.667C39.6668 12.29 39.4241 12.8757 38.9411 13.3587L32.6667 19.9503L26.3504 13.3167C25.9094 12.8757 25.6667 12.29 25.6667 11.667C25.6667 11.044 25.9094 10.4583 26.3527 10.015C26.7891 9.57632 27.3748 9.33366 27.9511 9.33366C28.0094 9.33599 29.1224 9.40833 30.4407 10.4653C30.6297 10.617 30.8211 10.7897 31.0171 10.9833L32.6667 12.633L34.3164 10.9833C34.5124 10.7897 34.7038 10.617 34.8928 10.4653C36.1271 9.47366 37.1701 9.34999 37.3474 9.33599C37.9658 9.33833 38.5468 9.57866 38.9831 10.0173C39.4241 10.4583 39.6668 11.044 39.6668 11.667Z" fill="#FCE45C"/>
</svg>
