<svg width="24" height="24" viewBox="0 0 24 24" fill="none" xmlns="http://www.w3.org/2000/svg">
<path d="M20.7419 13.045C20.0649 13.225 19.3659 13.316 18.6649 13.316C16.5299 13.316 14.5249 12.486 13.0189 10.98C11.0109 8.972 10.2199 6.013 10.9549 3.257C11.0469 2.912 10.9479 2.544 10.6959 2.292C10.4439 2.04 10.0769 1.938 9.72988 2.034C8.02788 2.489 6.47588 3.382 5.24088 4.616C1.34288 8.514 1.34288 14.859 5.24088 18.759C7.12988 20.648 9.64188 21.689 12.3129 21.689C14.9839 21.689 17.4949 20.649 19.3829 18.76C20.6189 17.523 21.5129 15.969 21.9659 14.269C22.0579 13.924 21.9579 13.556 21.7059 13.304C21.4539 13.051 21.0849 12.951 20.7419 13.045ZM17.9699 17.346C16.4589 18.857 14.4499 19.689 12.3139 19.689C10.1769 19.689 8.16788 18.856 6.65588 17.345C3.53788 14.226 3.53788 9.15 6.65588 6.031C7.25788 5.429 7.95388 4.929 8.71588 4.548C8.49388 7.433 9.52988 10.32 11.6059 12.396C13.6739 14.465 16.5329 15.516 19.4539 15.287C19.0719 16.046 18.5709 16.743 17.9699 17.346Z" fill="#333333"/>
</svg>
