<svg width="80" height="80" viewBox="0 0 80 80" fill="none" xmlns="http://www.w3.org/2000/svg">
<path d="M58.6667 21.237C58.6691 21.2198 58.6691 21.2023 58.6667 21.1852C57.2544 18.8602 56.3506 16.2624 56.0148 13.5629H56.4371C56.83 13.5629 57.2068 13.4068 57.4846 13.129C57.7625 12.8512 57.9185 12.4744 57.9185 12.0814V2.96293C57.9185 2.57001 57.7625 2.19319 57.4846 1.91536C57.2068 1.63753 56.83 1.48145 56.4371 1.48145H34.9556C34.5627 1.48145 34.1858 1.63753 33.908 1.91536C33.6302 2.19319 33.4741 2.57001 33.4741 2.96293V12.037C33.4741 12.4299 33.6302 12.8067 33.908 13.0846C34.1858 13.3624 34.5627 13.5185 34.9556 13.5185H36.0741C35.7459 16.2614 34.8368 18.9028 33.4074 21.2666L33.3334 21.3333C29.1457 28.0445 26.9185 35.7931 26.9037 43.7037V72.5037C26.8979 73.2877 27.0465 74.0652 27.3411 74.7918C27.6358 75.5184 28.0707 76.1799 28.6209 76.7384C29.1712 77.297 29.8261 77.7416 30.5483 78.0471C31.2704 78.3525 32.0456 78.5127 32.8297 78.5185H37.7778V75.5555H32.8297C32.4347 75.5497 32.0448 75.4662 31.6821 75.3097C31.3194 75.1532 30.9912 74.9267 30.716 74.6433C30.4409 74.3599 30.2243 74.0251 30.0785 73.658C29.9328 73.2909 29.8608 72.8986 29.8667 72.5037V43.7037C29.8667 43.4 29.8667 43.1037 29.8667 42.8C31.196 43.5911 32.4184 44.5495 33.5037 45.6518C35.6148 47.5926 37.8074 49.6 40.326 49.6C42.8445 49.6 45.0297 47.5926 47.1482 45.6518C48.8445 44.0889 50.6 42.474 51.9704 42.474C53.3408 42.474 55.0889 44.0889 56.7852 45.6518C58.4815 47.2148 60.2148 48.7926 62.126 49.3555V72.5037C62.1318 72.8986 62.0599 73.2909 61.9141 73.658C61.7684 74.0251 61.5518 74.3599 61.2766 74.6433C61.0015 74.9267 60.6732 75.1532 60.3105 75.3097C59.9479 75.4662 59.5579 75.5497 59.163 75.5555H46.6667V78.5185H59.1778C59.9619 78.5127 60.7371 78.3525 61.4592 78.0471C62.1813 77.7416 62.8362 77.297 63.3865 76.7384C63.9368 76.1799 64.3717 75.5184 64.6663 74.7918C64.961 74.0652 65.1096 73.2877 65.1037 72.5037V43.5555C65.0759 35.6621 62.8466 27.9329 58.6667 21.237ZM36.3778 4.44441H54.8963V10.5555H36.3778V4.44441ZM62.1408 46.1333C60.9366 45.3589 59.8191 44.4574 58.8074 43.4444C56.6889 41.4963 54.5037 39.4889 51.9852 39.4889C49.4667 39.4889 47.2741 41.4814 45.1852 43.4444C43.4889 45.0074 41.7334 46.6148 40.3704 46.6148C39.0074 46.6148 37.2222 45.0074 35.5556 43.4444C33.8889 41.8814 32.0667 40.237 30.1111 39.6889C30.7487 33.7552 32.7078 28.0399 35.8445 22.9629L35.9482 22.7926C37.6523 19.9692 38.7145 16.8056 39.0593 13.5259H52.9704C53.3209 16.7593 54.3752 19.8768 56.0593 22.6592L56.163 22.8296C60.0431 29.0539 62.113 36.2358 62.1408 43.5703V46.1333Z" fill="#1FC1BE"/>
<path d="M43.7037 77.0371C43.7037 76.2189 43.0404 75.5557 42.2222 75.5557C41.404 75.5557 40.7407 76.2189 40.7407 77.0371C40.7407 77.8553 41.404 78.5186 42.2222 78.5186C43.0404 78.5186 43.7037 77.8553 43.7037 77.0371Z" fill="#1FC1BE"/>
</svg>
