<svg width="80" height="80" viewBox="0 0 80 80" fill="none" xmlns="http://www.w3.org/2000/svg">
<g clip-path="url(#clip0)">
<path d="M78.1144 25.6024L40.7031 0.216152C40.2788 -0.0721289 39.7213 -0.0719726 39.2966 0.216152L1.88531 25.6024C1.54172 25.8355 1.33594 26.2237 1.33594 26.639V78.7476C1.33594 79.4393 1.89672 80.0002 2.58859 80.0002H77.4111C78.103 80.0002 78.6638 79.4394 78.6638 78.7476V26.639C78.6638 26.2237 78.4581 25.8355 78.1144 25.6024ZM30.7305 77.4949H17.2023V63.9668H20.0416V70.7308C20.0416 71.4226 20.6023 71.9835 21.2942 71.9835H26.6388C27.3305 71.9835 27.8914 71.4227 27.8914 70.7308V63.9668H30.7306V77.4949H30.7305ZM14.5302 32.0669V29.2277H65.4697V32.0669H14.5302ZM22.5469 69.4782V63.9668H25.3861V69.4782H22.5469ZM30.7305 61.4615H26.6386H21.2941H17.2022V47.9333H20.0414V54.6974C20.0414 55.3891 20.6022 55.9501 21.2941 55.9501H26.6386C27.3303 55.9501 27.8913 55.3893 27.8913 54.6974V47.9333H30.7305V61.4615ZM22.5469 53.4447V47.9333H25.3861V53.4447H22.5469ZM46.7639 77.4949H33.2358V63.9668H36.075V70.7308C36.075 71.4226 36.6358 71.9835 37.3277 71.9835H42.6722C43.3641 71.9835 43.9249 71.4227 43.9249 70.7308V63.9668H46.7641V77.4949H46.7639ZM38.5802 69.4782V63.9668H41.4194V69.4782H38.5802ZM76.1586 77.4949H65.3027V50.689C65.3027 49.9972 64.742 49.4363 64.05 49.4363C63.3581 49.4363 62.7974 49.9971 62.7974 50.689V77.4947H49.2692V62.7141C49.2692 62.0224 48.7086 61.4615 48.0166 61.4615H33.2358V46.6807C33.2358 45.989 32.675 45.428 31.9831 45.428H17.2023V34.5721H62.7974V45.3446C62.7974 46.0363 63.358 46.5972 64.05 46.5972C64.7419 46.5972 65.3027 46.0365 65.3027 45.3446V34.5721H66.7224C67.4142 34.5721 67.975 34.0113 67.975 33.3194V27.9751C67.975 27.2833 67.4144 26.7224 66.7224 26.7224H13.2775C12.5858 26.7224 12.0248 27.2832 12.0248 27.9751V33.3196C12.0248 34.0113 12.5856 34.5722 13.2775 34.5722H14.6972V77.4951H3.84125V27.3027L39.9999 2.76646L76.1585 27.3027V77.4949H76.1586Z" fill="#FCE45C"/>
<path d="M45.3444 10.6895H34.6555C33.9638 10.6895 33.4028 11.2502 33.4028 11.9421C33.4028 12.634 33.9636 13.1948 34.6555 13.1948H45.3444C46.0363 13.1948 46.597 12.634 46.597 11.9421C46.597 11.2502 46.0363 10.6895 45.3444 10.6895Z" fill="#FCE45C"/>
<path d="M45.3444 16.0342H34.6555C33.9638 16.0342 33.4028 16.595 33.4028 17.2868C33.4028 17.9787 33.9636 18.5395 34.6555 18.5395H45.3444C46.0363 18.5395 46.597 17.9787 46.597 17.2868C46.597 16.595 46.0363 16.0342 45.3444 16.0342Z" fill="#FCE45C"/>
<path d="M45.3444 21.3779H34.6555C33.9638 21.3779 33.4028 21.9387 33.4028 22.6306C33.4028 23.3225 33.9636 23.8832 34.6555 23.8832H45.3444C46.0363 23.8832 46.597 23.3225 46.597 22.6306C46.597 21.9387 46.0363 21.3779 45.3444 21.3779Z" fill="#FCE45C"/>
<path d="M26.6389 57.4531H21.2944C20.6027 57.4531 20.0417 58.0139 20.0417 58.7058C20.0417 59.3975 20.6025 59.9584 21.2944 59.9584H26.6389C27.3307 59.9584 27.8916 59.3977 27.8916 58.7058C27.8914 58.0139 27.3307 57.4531 26.6389 57.4531Z" fill="#FCE45C"/>
<path d="M26.6389 73.4863H21.2944C20.6027 73.4863 20.0417 74.0471 20.0417 74.739C20.0417 75.4307 20.6025 75.9917 21.2944 75.9917H26.6389C27.3307 75.9917 27.8916 75.4309 27.8916 74.739C27.8914 74.0473 27.3307 73.4863 26.6389 73.4863Z" fill="#FCE45C"/>
<path d="M42.6721 73.4863H37.3276C36.6359 73.4863 36.075 74.0471 36.075 74.739C36.075 75.4307 36.6357 75.9917 37.3276 75.9917H42.6721C43.364 75.9917 43.9248 75.4309 43.9248 74.739C43.9248 74.0473 43.3642 73.4863 42.6721 73.4863Z" fill="#FCE45C"/>
</g>
<defs>
<clipPath id="clip0">
<rect width="80" height="80" fill="white"/>
</clipPath>
</defs>
</svg>
