<svg width="80" height="80" viewBox="0 0 80 80" fill="none" xmlns="http://www.w3.org/2000/svg">
<path d="M59.7394 51.2991C59.7394 50.6091 60.2992 50.049 60.9894 50.049C61.6795 50.049 62.2394 50.6089 62.2394 51.2991V56.1429C62.2394 56.833 61.6795 57.393 60.9894 57.393H60.9582H41.6144C40.9245 57.393 40.3645 56.8331 40.3645 56.1429V56.1118V46.4579C40.3645 45.7679 40.9244 45.208 41.6144 45.208H41.6457H60.9868C61.6769 45.208 62.2369 45.7677 62.2369 46.4579C62.2369 47.1481 61.677 47.708 60.9868 47.708H42.8619V54.893H59.7341V51.2992L59.7394 51.2991Z" fill="#FCE45C"/>
<path d="M20.2631 69.0629C20.2631 69.7529 19.7032 70.3129 19.013 70.3129C18.3228 70.3129 17.7629 69.753 17.7629 69.0629V43.5134C17.7629 42.8235 18.3228 42.2635 19.013 42.2635H19.0442H31.9271C32.6172 42.2635 33.1772 42.826 33.1772 43.5134V43.5446V67.8128H71.0393V38.2061C71.0393 37.5161 71.5992 36.9561 72.2892 36.9561C72.9794 36.9561 73.5393 37.5159 73.5393 38.2061V69.029V69.0629C73.5393 69.7529 72.9794 70.3129 72.2892 70.3129H31.9585H31.9273C31.2372 70.3129 30.6772 69.753 30.6772 69.0629V44.7634H20.2632V69.0629H20.2631Z" fill="#FCE45C"/>
<path d="M6.45825 38.2061C6.45825 37.5161 7.01812 36.9561 7.70832 36.9561C8.39851 36.9561 8.95838 37.5159 8.95838 38.2061V67.8103H13.3594C14.0495 67.8103 14.6095 68.3702 14.6095 69.0604C14.6095 69.7506 14.0496 70.3103 13.3594 70.3103H7.74217H7.71093C7.02087 70.3103 6.46087 69.7506 6.46087 69.0604V38.2061H6.45825Z" fill="#FCE45C"/>
<path d="M2.26045 29.4297C1.85679 29.987 1.07562 30.1095 0.518231 29.7083C-0.0390236 29.3046 -0.161507 28.5234 0.239669 27.9661L13.1564 10.2057C13.4012 9.86972 13.7814 9.69273 14.1667 9.69273V9.6875H65.8334C66.2761 9.6875 66.6615 9.91665 66.8856 10.2631L79.7604 27.9662C80.1641 28.5234 80.0391 29.3048 79.4818 29.7084C78.9244 30.1121 78.1433 29.9871 77.7397 29.4298L65.2006 12.1876H14.7995L2.26045 29.4297ZM66.8856 10.2631L67.0835 10.9376C67.0835 10.6901 67.0105 10.4583 66.8856 10.2631Z" fill="#FCE45C"/>
<path d="M77.5001 28.6973C77.5001 28.0073 78.06 27.4473 78.75 27.4473C79.4402 27.4473 80 28.0071 80 28.6973C80 30.3797 79.3151 31.9057 78.2162 33.0073C77.1146 34.1088 75.5884 34.791 73.9062 34.791C72.224 34.791 70.6979 34.1087 69.5963 33.0073C68.4947 31.9058 67.8125 30.3797 67.8125 28.6973C67.8125 28.0073 68.3751 27.4473 69.0626 27.4473C69.7526 27.4473 70.3125 28.0071 70.3125 28.6973C70.3125 29.6895 70.7163 30.5879 71.3648 31.239C72.0156 31.8874 72.9143 32.2911 73.9062 32.2911C74.8981 32.2911 75.7968 31.8874 76.4478 31.239C77.0964 30.5879 77.5001 29.6895 77.5001 28.6973Z" fill="#FCE45C"/>
<path d="M17.3958 18.6455C16.7058 18.6455 16.1458 18.0856 16.1458 17.3954C16.1458 16.7052 16.7056 16.1455 17.3958 16.1455H62.6042C63.2943 16.1455 63.8542 16.7054 63.8542 17.3954C63.8542 18.0856 63.2944 18.6455 62.6042 18.6455H17.3958Z" fill="#FCE45C"/>
<path d="M58.125 28.6973C58.125 28.0073 58.6849 27.4473 59.3749 27.4473C60.0651 27.4473 60.625 28.0071 60.625 28.6973C60.625 29.6895 61.0287 30.5879 61.6772 31.239L61.7396 31.3067C62.383 31.9162 63.2555 32.2911 64.219 32.2911C65.2111 32.2911 66.1096 31.8874 66.7604 31.239C67.4114 30.588 67.8126 29.6895 67.8126 28.6973C67.8126 28.0073 68.3752 27.4473 69.0626 27.4473C69.7527 27.4473 70.3126 28.0071 70.3126 28.6973C70.3126 30.3797 69.6279 31.9057 68.5288 33.0073C67.4272 34.1088 65.9009 34.791 64.2189 34.791C62.5808 34.791 61.0939 34.1427 59.9975 33.0853L59.9115 33.0071C58.8074 31.9057 58.125 30.3796 58.125 28.6973Z" fill="#FCE45C"/>
<path d="M38.75 28.6973C38.75 28.0073 39.3099 27.4473 40.0001 27.4473C40.6903 27.4473 41.2501 28.0071 41.2501 28.6973C41.2501 29.6895 41.6538 30.5879 42.3023 31.239C42.9531 31.8874 43.8518 32.2911 44.8437 32.2911C45.8356 32.2911 46.7343 31.8874 47.3853 31.239C48.0338 30.588 48.4374 29.6895 48.4374 28.6973C48.4374 28.0073 48.9973 27.4473 49.6875 27.4473C50.3776 27.4473 50.9374 28.0071 50.9374 28.6973C50.9374 30.3797 50.2526 31.9057 49.1537 33.0073C48.052 34.1088 46.5258 34.791 44.8436 34.791C43.1614 34.791 41.6352 34.1087 40.5337 33.0073C39.4325 31.9058 38.75 30.3796 38.75 28.6973Z" fill="#FCE45C"/>
<path d="M58.125 28.6973C58.125 28.0073 58.6848 27.4473 59.3749 27.4473C60.0651 27.4473 60.625 28.0071 60.625 28.6973C60.625 30.3797 59.9401 31.9057 58.8412 33.0073C57.7396 34.1088 56.2135 34.791 54.5312 34.791C52.849 34.791 51.3229 34.1087 50.2213 33.0073C49.1196 31.9058 48.4375 30.3797 48.4375 28.6973C48.4375 28.0073 48.9974 27.4473 49.6876 27.4473C50.3776 27.4473 50.9375 28.0071 50.9375 28.6973C50.9375 29.6895 51.3412 30.5879 51.9897 31.239C52.6406 31.8874 53.5392 32.2911 54.5312 32.2911C55.5233 32.2911 56.4218 31.8874 57.0728 31.239C57.7213 30.5879 58.125 29.6895 58.125 28.6973Z" fill="#FCE45C"/>
<path d="M38.7499 28.6973C38.7499 28.0073 39.3098 27.4473 40 27.4473C40.6902 27.4473 41.2501 28.0071 41.2501 28.6973C41.2501 30.3797 40.5676 31.9057 39.4663 33.0073L39.3804 33.0854C38.2814 34.1427 36.7918 34.7912 35.1565 34.7912C33.4741 34.7912 31.9481 34.1088 30.8465 33.0074C29.745 31.906 29.0627 30.3798 29.0627 28.6975C29.0627 28.0074 29.6226 27.4474 30.3128 27.4474C31.003 27.4474 31.5629 28.0073 31.5629 28.6975C31.5629 29.6896 31.9665 30.588 32.6149 31.2392C33.2659 31.8875 34.1644 32.2912 35.1566 32.2912C36.1201 32.2912 36.9925 31.9162 37.6332 31.3069L37.6957 31.2392C38.3463 30.5879 38.7499 29.6895 38.7499 28.6973Z" fill="#FCE45C"/>
<path d="M19.375 28.6973C19.375 28.0073 19.9349 27.4473 20.6251 27.4473C21.3153 27.4473 21.8751 28.0071 21.8751 28.6973C21.8751 29.6895 22.2788 30.5879 22.9272 31.239C23.5781 31.8874 24.4767 32.2911 25.4689 32.2911C26.461 32.2911 27.3594 31.8874 28.0106 31.239C28.6589 30.588 29.0626 29.6895 29.0626 28.6973C29.0626 28.0073 29.6225 27.4473 30.3127 27.4473C31.0028 27.4473 31.5627 28.0071 31.5627 28.6973C31.5627 30.3797 30.8804 31.9057 29.7789 33.0073C28.6775 34.1088 27.1513 34.791 25.469 34.791C23.7866 34.791 22.2606 34.1087 21.1591 33.0073C20.0575 31.9058 19.375 30.3796 19.375 28.6973Z" fill="#FCE45C"/>
<path d="M19.375 28.6975C19.375 28.0074 19.9348 27.4474 20.625 27.4474C21.3152 27.4474 21.8751 28.0073 21.8751 28.6975C21.8751 30.3798 21.1927 31.9058 20.0913 33.0074C18.9899 34.109 17.4637 34.7912 15.7814 34.7912C14.1016 34.7912 12.5808 34.1088 11.4767 33.002L11.474 33.0073C10.3725 31.9057 9.6875 30.3797 9.6875 28.6973C9.6875 28.0073 10.2474 27.4473 10.9376 27.4473C11.6278 27.4473 12.1876 28.0071 12.1876 28.6973C12.1876 29.6895 12.5913 30.5879 13.2397 31.239V31.2416L13.2423 31.2443C13.888 31.8901 14.7865 32.2912 15.7814 32.2912C16.7735 32.2912 17.672 31.8875 18.3231 31.2392C18.9713 30.588 19.375 29.6896 19.375 28.6975Z" fill="#FCE45C"/>
<path d="M0 28.6973C0 28.0073 0.559869 27.4473 1.25007 27.4473C1.94026 27.4473 2.50013 28.0071 2.50013 28.6973C2.50013 29.6895 2.90379 30.5879 3.55216 31.239C4.20314 31.8874 5.1017 32.2911 6.09386 32.2911C7.08601 32.2911 7.98444 31.8874 8.63555 31.239C9.28392 30.588 9.68758 29.6895 9.68758 28.6973C9.68758 28.0073 10.2474 27.4473 10.9376 27.4473C11.6278 27.4473 12.1877 28.0071 12.1877 28.6973C12.1877 30.3797 11.5054 31.9057 10.4039 33.0073C9.30248 34.1088 7.77895 34.791 6.09399 34.791C4.40902 34.791 2.88562 34.1087 1.78405 33.0073C0.682484 31.9058 0 30.3796 0 28.6973Z" fill="#FCE45C"/>
</svg>
